<?xml version="1.0" encoding="UTF-8"?>
<svg version="1.1" xmlns="http://www.w3.org/2000/svg" width="417" height="96">
<path d="M0 0 C1.875 2.0625 1.875 2.0625 3 4 C4.32 3.34 5.64 2.68 7 2 C6.01 1.67 5.02 1.34 4 1 C4.66 0.34 5.32 -0.32 6 -1 C16.37617797 -0.62942222 24.26941817 3.37972125 31.73046875 10.48828125 C38.33016766 17.79225096 41.18772469 24.23831609 41 34 C40.29875 33.175 39.5975 32.35 38.875 31.5 C35.43906738 28.51223251 34.3534588 28.90535959 30 29 C28.125 27 28.125 27 27 25 C26.505 25.495 26.505 25.495 26 26 C26.78281305 27.33855056 27.57651877 28.67073644 28.375 30 C28.81585938 30.7425 29.25671875 31.485 29.7109375 32.25 C30.13632813 32.8275 30.56171875 33.405 31 34 C31.66 34 32.32 34 33 34 C33 34.66 33 35.32 33 36 C34.98 35.67 36.96 35.34 39 35 C42.02252547 40.68234788 42.80039966 44.75371545 41 51 C36.33833273 62.4184659 30.97278597 71.85179171 19.33203125 77.03515625 C18.56246094 77.35355469 17.79289062 77.67195313 17 78 C16.05125 78.433125 15.1025 78.86625 14.125 79.3125 C3.25373355 81.70417862 -10.20471778 80.67032033 -19.8125 74.9375 C-29.28005388 68.24966397 -36.53402332 59.16167495 -39.58984375 47.80859375 C-39.875 45.875 -39.875 45.875 -40 42 C-40.06058594 41.24460938 -40.12117188 40.48921875 -40.18359375 39.7109375 C-40.74418605 29.00872088 -36.61193205 19.43175148 -30.5390625 10.77734375 C-23.03867164 2.57307006 -11.18749774 -3.38226676 0 0 Z M-13 3 C-13 3.33 -13 3.66 -13 4 C-11.329375 3.9690625 -11.329375 3.9690625 -9.625 3.9375 C-6 4 -6 4 -4 5 C-4 4.34 -4 3.68 -4 3 C-2.68 3.33 -1.36 3.66 0 4 C-0.33 3.01 -0.66 2.02 -1 1 C-5.46839215 0.78721942 -8.82262526 1.40861915 -13 3 Z M11 2 C14.07999946 5.67230705 16.2482602 6.56802365 21 7 C18.87330165 4.66063182 16.93775144 3.19346152 14 2 C13.01 2 12.02 2 11 2 Z M0 4 C1 6 1 6 1 6 Z M12 7 C14.62198774 9.15377564 16.64404172 10.40072174 20 11 C17.60490662 8.10067643 15.68754757 7.49831724 12 7 Z M-9 11 C-9 11.33 -9 11.66 -9 12 C-4.94393835 11.53199289 -1.53411321 11.12046792 2 9 C-2.25108443 7.12952285 -5.0908164 9.12058481 -9 11 Z M4 9 C4 9.99 4 10.98 4 12 C4.65226562 12.15855469 5.30453125 12.31710938 5.9765625 12.48046875 C11.86138187 14.05148985 15.62920943 15.74423023 20 20 C18.13677002 14.69696082 16.63494115 12.80260747 11.5625 10.3125 C8.00720219 8.76952976 8.00720219 8.76952976 4 9 Z M0 12 C1 14 1 14 1 14 Z M21 12 C21.99 13.485 21.99 13.485 23 15 C23.66 14.67 24.32 14.34 25 14 C23.68 13.34 22.36 12.68 21 12 Z M-15 13 C-15 13.99 -15 14.98 -15 16 C-14.34 15.01 -13.68 14.02 -13 13 C-13.66 13 -14.32 13 -15 13 Z M-4 15 C-3 17 -3 17 -3 17 Z M26 16 C26.66 17.32 27.32 18.64 28 20 C28 19.01 28 18.02 28 17 C27.34 16.67 26.68 16.34 26 16 Z M8 18 C8 18.66 8 19.32 8 20 C8.66 19.67 9.32 19.34 10 19 C9.34 18.67 8.68 18.34 8 18 Z M5 19 C6 21 6 21 6 21 Z M-13 20 C-12.34 20.66 -11.68 21.32 -11 22 C-11 21.34 -11 20.68 -11 20 C-11.66 20 -12.32 20 -13 20 Z M-22 21 C-22.99 22.485 -22.99 22.485 -24 24 C-26.125 25.1875 -26.125 25.1875 -28 26 C-28 28.64 -28 31.28 -28 34 C-27.01 34.33 -26.02 34.66 -25 35 C-25 32.69 -25 30.38 -25 28 C-24.34 28 -23.68 28 -23 28 C-20.69328085 25.28450846 -20.69328085 25.28450846 -21.375 22.8125 C-21.58125 22.214375 -21.7875 21.61625 -22 21 Z M-4 21 C-4 24 -4 24 -4 24 Z M15 21 C16 23 16 23 16 23 Z M9 23 C8.34 24.32 7.68 25.64 7 27 C7.99 27 8.98 27 10 27 C9.67 25.68 9.34 24.36 9 23 Z M-9.625 25.5 C-10.07875 25.995 -10.5325 26.49 -11 27 C-9.68 27.33 -8.36 27.66 -7 28 C-6.67 26.68 -6.34 25.36 -6 24 C-8.12364481 23.77390663 -8.12364481 23.77390663 -9.625 25.5 Z M18 26 C19 28 19 28 19 28 Z M-14 27 C-14.33 27.99 -14.66 28.98 -15 30 C-14.01 30 -13.02 30 -12 30 C-12.33 29.01 -12.66 28.02 -13 27 C-13.33 27 -13.66 27 -14 27 Z M12 27 C11.34 28.65 10.68 30.3 10 32 C10.99 32.33 11.98 32.66 13 33 C13.66 31.02 14.32 29.04 15 27 C14.01 27 13.02 27 12 27 Z M19 29 C19.33 29.99 19.66 30.98 20 32 C20.33 31.01 20.66 30.02 21 29 C20.34 29 19.68 29 19 29 Z M-4 32 C-3 34 -3 34 -3 34 Z M-16 33 C-15.67 33.66 -15.34 34.32 -15 35 C-14.01 34.67 -13.02 34.34 -12 34 C-13.32 33.67 -14.64 33.34 -16 33 Z M-10 33 C-10.33 34.32 -10.66 35.64 -11 37 C-9.02 37 -7.04 37 -5 37 C-6.36323743 34.9600281 -6.36323743 34.9600281 -8 33 C-8.66 33 -9.32 33 -10 33 Z M5 33 C5 34.65 5 36.3 5 38 C5.99 37.01 6.98 36.02 8 35 C7.67 34.34 7.34 33.68 7 33 C6.34 33 5.68 33 5 33 Z M-19 35 C-19.66 35.66 -20.32 36.32 -21 37 C-20.01 37.33 -19.02 37.66 -18 38 C-17.67 37.01 -17.34 36.02 -17 35 C-17.66 35 -18.32 35 -19 35 Z M18 37 C17.67 38.32 17.34 39.64 17 41 C17.66 41 18.32 41 19 41 C18.67 39.68 18.34 38.36 18 37 Z M-5 38 C-4 40 -4 40 -4 40 Z M10 38 C10.33 39.32 10.66 40.64 11 42 C11 40.68 11 39.36 11 38 C10.67 38 10.34 38 10 38 Z M-14 40 C-14 40.99 -14 41.98 -14 43 C-13.01 42.67 -12.02 42.34 -11 42 C-11.33 41.34 -11.66 40.68 -12 40 C-12.66 40 -13.32 40 -14 40 Z M5 40 C5.33 41.32 5.66 42.64 6 44 C6 43.34 6 42.68 6 42 C6.66 42 7.32 42 8 42 C8 41.34 8 40.68 8 40 C7.01 40 6.02 40 5 40 Z M-20 41 C-19.67 42.32 -19.34 43.64 -19 45 C-19 43.68 -19 42.36 -19 41 C-19.33 41 -19.66 41 -20 41 Z M22 41 C23 44 23 44 23 44 Z M27 41 C28 43 28 43 28 43 Z M-27 42 C-27.97861264 44.1050479 -27.97861264 44.1050479 -28 47 C-26.63101532 49.87368766 -24.82032472 52.39663057 -23 55 C-22.64164063 55.598125 -22.28328125 56.19625 -21.9140625 56.8125 C-20.41626843 59.30482933 -19.512013 60.80088383 -16.75 61.875 C-16.1725 61.91625 -15.595 61.9575 -15 62 C-16.12451727 59.0280615 -17.22293791 56.66559313 -19 54 C-19.66 54 -20.32 54 -21 54 C-21.103125 53.360625 -21.20625 52.72125 -21.3125 52.0625 C-21.539375 51.381875 -21.76625 50.70125 -22 50 C-22.99 49.67 -23.98 49.34 -25 49 C-25 47.02 -25 45.04 -25 43 C-25.66 42.67 -26.32 42.34 -27 42 Z M16 42 C15.67 42.99 15.34 43.98 15 45 C15.99 45 16.98 45 18 45 C18 44.01 18 43.02 18 42 C17.34 42 16.68 42 16 42 Z M13 42 C12.34 42.66 11.68 43.32 11 44 C11.99 44 12.98 44 14 44 C13.67 43.34 13.34 42.68 13 42 Z M30 43 C31 45 31 45 31 45 Z M28 44 C26.5393715 46.64738916 26 47.89448334 26 51 C26.66 51 27.32 51 28 51 C28.33 48.69 28.66 46.38 29 44 C28.67 44 28.34 44 28 44 Z M-4 45 C-4 45.99 -4 46.98 -4 48 C-3.34 48 -2.68 48 -2 48 C-2.33 47.01 -2.66 46.02 -3 45 C-3.33 45 -3.66 45 -4 45 Z M-10 46 C-10.99 47.485 -10.99 47.485 -12 49 C-10.68 49.33 -9.36 49.66 -8 50 C-7.67 49.01 -7.34 48.02 -7 47 C-7.99 46.67 -8.98 46.34 -10 46 Z M33 46 C32.67 48.31 32.34 50.62 32 53 C33.97536745 52.65213292 33.97536745 52.65213292 36 52 C36.33 51.34 36.66 50.68 37 50 C36.01 50 35.02 50 34 50 C33.67 48.68 33.34 47.36 33 46 Z M16 47 C16 47.66 16 48.32 16 49 C16.66 49 17.32 49 18 49 C18 48.34 18 47.68 18 47 C17.34 47 16.68 47 16 47 Z M-14 50 C-14.66 51.32 -15.32 52.64 -16 54 C-14.68 53.34 -13.36 52.68 -12 52 C-12 51.34 -12 50.68 -12 50 C-12.66 50 -13.32 50 -14 50 Z M5 50 C5 51.65 5 53.3 5 55 C5.66 55 6.32 55 7 55 C6.67 53.35 6.34 51.7 6 50 C5.67 50 5.34 50 5 50 Z M-10 53 C-9 55 -9 55 -9 55 Z M-3 57 C-4.32 57.99 -5.64 58.98 -7 60 C-5.68 60 -4.36 60 -3 60 C-2.34 59.34 -1.68 58.68 -1 58 C-1.66 57.67 -2.32 57.34 -3 57 Z M-14 63 C-13.33576793 65.03883888 -13.33576793 65.03883888 -12 67 C-9.81458448 67.6993514 -9.81458448 67.6993514 -7.375 67.75 C-6.14910156 67.83507812 -6.14910156 67.83507812 -4.8984375 67.921875 C-4.27195312 67.94765625 -3.64546875 67.9734375 -3 68 C-3 66.68 -3 65.36 -3 64 C-3.804375 64.020625 -4.60875 64.04125 -5.4375 64.0625 C-8 64 -8 64 -9 63 C-10.66617115 62.95936168 -12.33388095 62.957279 -14 63 Z M12 63 C10.02 63.33 8.04 63.66 6 64 C6.7763932 67.0745356 6.7763932 67.0745356 9 69 C10.65 68.34 12.3 67.68 14 67 C13.34 65.68 12.68 64.36 12 63 Z M18 64 C18.33 64.99 18.66 65.98 19 67 C19 66.01 19 65.02 19 64 C18.67 64 18.34 64 18 64 Z M-7 73 C-7 74.32 -7 75.64 -7 77 C-5.68 76.67 -4.36 76.34 -3 76 C-3.99 76 -4.98 76 -6 76 C-6.33 75.01 -6.66 74.02 -7 73 Z " fill="#3D6B7C" transform="translate(53,7)"/>
<path d="M0 0 C2.03140217 0.67492968 2.03140217 0.67492968 3.88671875 -0.0390625 C8.10962204 -0.93368115 12.17522531 0.88030221 16.0625 2.5 C18.34319399 4.01298007 20.09006375 5.57946996 22.0625 7.5 C22.7225 7.17 23.3825 6.84 24.0625 6.5 C24.5575 9.965 24.5575 9.965 25.0625 13.5 C24.0725 13.83 23.0825 14.16 22.0625 14.5 C22.0625 15.82 22.0625 17.14 22.0625 18.5 C23.3825 18.83 24.7025 19.16 26.0625 19.5 C26.28634382 21.22722728 26.49089969 22.95696007 26.6875 24.6875 C26.80351563 25.65042969 26.91953125 26.61335938 27.0390625 27.60546875 C27.06499246 30.8078186 26.56858435 32.6870231 25.0625 35.5 C24.0725 36.16 23.0825 36.82 22.0625 37.5 C21.33867533 39.55925139 21.33867533 39.55925139 21.0625 41.5 C19.0825 41.5 17.1025 41.5 15.0625 41.5 C15.5575 43.48 15.5575 43.48 16.0625 45.5 C14.4125 45.17 12.7625 44.84 11.0625 44.5 C11.5575 46.48 11.5575 46.48 12.0625 48.5 C9.84493546 48.0248076 8.13994733 47.5465328 6.18359375 46.37109375 C4.10975266 45.27670872 4.10975266 45.27670872 2.01953125 45.99609375 C1.31183594 46.30675781 0.60414062 46.61742187 -0.125 46.9375 C-6.02306999 49.15049485 -11.05094267 48.46218578 -16.9375 46.5 C-16.9375 45.18 -16.9375 43.86 -16.9375 42.5 C-17.5975 42.5 -18.2575 42.5 -18.9375 42.5 C-19.370625 41.5409375 -19.370625 41.5409375 -19.8125 40.5625 C-20.76573451 38.34793921 -20.76573451 38.34793921 -22.9375 37.5 C-25.93330555 30.49314369 -24.51865115 23.68815637 -22.9375 16.5 C-22.2775 16.5 -21.6175 16.5 -20.9375 16.5 C-20.6075 13.86 -20.2775 11.22 -19.9375 8.5 C-18.6175 8.5 -17.2975 8.5 -15.9375 8.5 C-15.9375 7.51 -15.9375 6.52 -15.9375 5.5 C-14.9475 5.5 -13.9575 5.5 -12.9375 5.5 C-12.6075 4.51 -12.2775 3.52 -11.9375 2.5 C-8.5625 1.375 -8.5625 1.375 -4.9375 0.5 C-1.9375 -0.5 -1.9375 -0.5 0 0 Z M-1.9375 3.5 C-0.9375 5.5 -0.9375 5.5 -0.9375 5.5 Z M10.0625 6.5 C10.0625 7.16 10.0625 7.82 10.0625 8.5 C10.7225 8.17 11.3825 7.84 12.0625 7.5 C11.4025 7.17 10.7425 6.84 10.0625 6.5 Z M7.0625 7.5 C8.0625 9.5 8.0625 9.5 8.0625 9.5 Z M-10.9375 8.5 C-10.2775 9.16 -9.6175 9.82 -8.9375 10.5 C-8.9375 9.84 -8.9375 9.18 -8.9375 8.5 C-9.5975 8.5 -10.2575 8.5 -10.9375 8.5 Z M-1.9375 9.5 C-1.9375 12.5 -1.9375 12.5 -1.9375 12.5 Z M17.0625 9.5 C18.0625 11.5 18.0625 11.5 18.0625 11.5 Z M11.0625 11.5 C10.4025 12.82 9.7425 14.14 9.0625 15.5 C10.0525 15.5 11.0425 15.5 12.0625 15.5 C11.7325 14.18 11.4025 12.86 11.0625 11.5 Z M-7.5625 14 C-8.01625 14.495 -8.47 14.99 -8.9375 15.5 C-7.6175 15.83 -6.2975 16.16 -4.9375 16.5 C-4.6075 15.18 -4.2775 13.86 -3.9375 12.5 C-6.06114481 12.27390663 -6.06114481 12.27390663 -7.5625 14 Z M20.0625 14.5 C21.0625 16.5 21.0625 16.5 21.0625 16.5 Z M-11.9375 15.5 C-12.2675 16.49 -12.5975 17.48 -12.9375 18.5 C-11.9475 18.5 -10.9575 18.5 -9.9375 18.5 C-10.2675 17.51 -10.5975 16.52 -10.9375 15.5 C-11.2675 15.5 -11.5975 15.5 -11.9375 15.5 Z M14.0625 15.5 C13.4025 17.15 12.7425 18.8 12.0625 20.5 C13.0525 20.83 14.0425 21.16 15.0625 21.5 C15.7225 19.52 16.3825 17.54 17.0625 15.5 C16.0725 15.5 15.0825 15.5 14.0625 15.5 Z M-1.9375 20.5 C-0.9375 22.5 -0.9375 22.5 -0.9375 22.5 Z M-13.9375 21.5 C-13.6075 22.16 -13.2775 22.82 -12.9375 23.5 C-11.9475 23.17 -10.9575 22.84 -9.9375 22.5 C-11.2575 22.17 -12.5775 21.84 -13.9375 21.5 Z M-7.9375 21.5 C-8.2675 22.82 -8.5975 24.14 -8.9375 25.5 C-6.9575 25.5 -4.9775 25.5 -2.9375 25.5 C-4.30073743 23.4600281 -4.30073743 23.4600281 -5.9375 21.5 C-6.5975 21.5 -7.2575 21.5 -7.9375 21.5 Z M7.0625 21.5 C7.0625 23.15 7.0625 24.8 7.0625 26.5 C8.0525 25.51 9.0425 24.52 10.0625 23.5 C9.7325 22.84 9.4025 22.18 9.0625 21.5 C8.4025 21.5 7.7425 21.5 7.0625 21.5 Z M-16.9375 23.5 C-17.5975 24.16 -18.2575 24.82 -18.9375 25.5 C-17.9475 25.83 -16.9575 26.16 -15.9375 26.5 C-15.6075 25.51 -15.2775 24.52 -14.9375 23.5 C-15.5975 23.5 -16.2575 23.5 -16.9375 23.5 Z M20.0625 25.5 C19.7325 26.82 19.4025 28.14 19.0625 29.5 C19.7225 29.5 20.3825 29.5 21.0625 29.5 C20.7325 28.18 20.4025 26.86 20.0625 25.5 Z M-2.9375 26.5 C-1.9375 28.5 -1.9375 28.5 -1.9375 28.5 Z M12.0625 26.5 C12.3925 27.82 12.7225 29.14 13.0625 30.5 C13.0625 29.18 13.0625 27.86 13.0625 26.5 C12.7325 26.5 12.4025 26.5 12.0625 26.5 Z M-11.9375 28.5 C-11.9375 29.49 -11.9375 30.48 -11.9375 31.5 C-10.9475 31.17 -9.9575 30.84 -8.9375 30.5 C-9.2675 29.84 -9.5975 29.18 -9.9375 28.5 C-10.5975 28.5 -11.2575 28.5 -11.9375 28.5 Z M7.0625 28.5 C7.3925 29.82 7.7225 31.14 8.0625 32.5 C8.0625 31.84 8.0625 31.18 8.0625 30.5 C8.7225 30.5 9.3825 30.5 10.0625 30.5 C10.0625 29.84 10.0625 29.18 10.0625 28.5 C9.0725 28.5 8.0825 28.5 7.0625 28.5 Z M-17.9375 29.5 C-17.6075 30.82 -17.2775 32.14 -16.9375 33.5 C-16.9375 32.18 -16.9375 30.86 -16.9375 29.5 C-17.2675 29.5 -17.5975 29.5 -17.9375 29.5 Z M24.0625 29.5 C25.0625 32.5 25.0625 32.5 25.0625 32.5 Z M18.0625 30.5 C17.7325 31.49 17.4025 32.48 17.0625 33.5 C18.0525 33.5 19.0425 33.5 20.0625 33.5 C20.0625 32.51 20.0625 31.52 20.0625 30.5 C19.4025 30.5 18.7425 30.5 18.0625 30.5 Z M15.0625 30.5 C14.4025 31.16 13.7425 31.82 13.0625 32.5 C14.0525 32.5 15.0425 32.5 16.0625 32.5 C15.7325 31.84 15.4025 31.18 15.0625 30.5 Z M-1.9375 33.5 C-1.9375 34.49 -1.9375 35.48 -1.9375 36.5 C-1.2775 36.5 -0.6175 36.5 0.0625 36.5 C-0.2675 35.51 -0.5975 34.52 -0.9375 33.5 C-1.2675 33.5 -1.5975 33.5 -1.9375 33.5 Z M-7.9375 34.5 C-8.9275 35.985 -8.9275 35.985 -9.9375 37.5 C-8.6175 37.83 -7.2975 38.16 -5.9375 38.5 C-5.6075 37.51 -5.2775 36.52 -4.9375 35.5 C-5.9275 35.17 -6.9175 34.84 -7.9375 34.5 Z M18.0625 35.5 C18.0625 36.16 18.0625 36.82 18.0625 37.5 C18.7225 37.5 19.3825 37.5 20.0625 37.5 C20.0625 36.84 20.0625 36.18 20.0625 35.5 C19.4025 35.5 18.7425 35.5 18.0625 35.5 Z M-11.9375 38.5 C-12.5975 39.82 -13.2575 41.14 -13.9375 42.5 C-12.6175 41.84 -11.2975 41.18 -9.9375 40.5 C-9.9375 39.84 -9.9375 39.18 -9.9375 38.5 C-10.5975 38.5 -11.2575 38.5 -11.9375 38.5 Z M7.0625 38.5 C7.0625 40.15 7.0625 41.8 7.0625 43.5 C7.7225 43.5 8.3825 43.5 9.0625 43.5 C8.7325 41.85 8.4025 40.2 8.0625 38.5 C7.7325 38.5 7.4025 38.5 7.0625 38.5 Z M-7.9375 41.5 C-6.9375 43.5 -6.9375 43.5 -6.9375 43.5 Z " fill="#549CBC" transform="translate(50.9375,18.5)"/>
<path d="M0 0 C4.16625 -0.0825 8.3325 -0.165 12.625 -0.25 C13.92775879 -0.28641602 15.23051758 -0.32283203 16.57275391 -0.36035156 C27.26626792 -0.4629987 27.26626792 -0.4629987 32 4 C34.72690774 8.26820342 33.92554436 12.25658517 33 17 C32.731875 17.9075 32.46375 18.815 32.1875 19.75 C32.0946875 20.86375 32.0946875 20.86375 32 22 C33.81260132 24.22931824 33.81260132 24.22931824 36 26 C37.72304876 29.44609752 37.37297068 33.22448982 37 37 C35.52406483 40.23300086 33.73407055 42.72160787 31 45 C27.64264863 46.11911712 25.11794614 46.11365586 21.58203125 46.09765625 C19.88784058 46.09390991 19.88784058 46.09390991 18.15942383 46.09008789 C16.00769653 46.07643188 16.00769653 46.07643188 13.8125 46.0625 C9.254375 46.041875 4.69625 46.02125 0 46 C0 30.82 0 15.64 0 0 Z M11 8 C10.67 11.3 10.34 14.6 10 18 C11.77007714 18.08114106 13.54122098 18.13925505 15.3125 18.1875 C16.29863281 18.22230469 17.28476562 18.25710937 18.30078125 18.29296875 C21.01333025 18.22727114 21.01333025 18.22727114 22.8359375 16.6484375 C24.46984593 14.33464771 24.35458018 12.76572542 24 10 C22.16262173 7.72783152 22.16262173 7.72783152 19.3984375 7.8046875 C18.40070313 7.82789063 17.40296875 7.85109375 16.375 7.875 C15.37210937 7.89304687 14.36921875 7.91109375 13.3359375 7.9296875 C12.17964844 7.96449219 12.17964844 7.96449219 11 8 Z M11 26 C9.50501087 28.98997825 9.88422554 31.70042775 10 35 C10.33 35.99 10.66 36.98 11 38 C13.10353495 38.0810206 15.20795952 38.13919907 17.3125 38.1875 C18.48425781 38.22230469 19.65601563 38.25710937 20.86328125 38.29296875 C23.94849182 38.25569165 23.94849182 38.25569165 25.9296875 36.7109375 C27.33300777 34.8318247 27.33300777 34.8318247 26.8125 31.4375 C26.30784082 27.95751223 26.30784082 27.95751223 24 26 C20.87185486 25.75639927 20.87185486 25.75639927 17.375 25.875 C15.59222656 25.90207031 15.59222656 25.90207031 13.7734375 25.9296875 C12.85820312 25.95289062 11.94296875 25.97609375 11 26 Z " fill="#FBFDFD" transform="translate(282,23)"/>
<path d="M0 0 C4.58632049 3.78869953 7.87648672 8.09902486 9 14 C9.11860998 16.28944841 9.17517481 18.58251435 9.1875 20.875 C9.20167969 22.06867187 9.21585937 23.26234375 9.23046875 24.4921875 C8.82653352 30.64021857 6.78118804 35.16848195 3 40 C-3.96026023 45.36520059 -10.38776438 45.7849406 -19 45 C-24.93741554 43.2994309 -28.57712577 40.03363858 -32 35 C-35.29516971 26.95932181 -35.64508939 15.85885111 -32.3125 7.75 C-29.27106529 2.17580258 -24.98512776 -0.45567743 -19.1015625 -2.4609375 C-12.40683642 -4.17817207 -6.14241989 -2.94789176 0 0 Z M-22 10 C-24.76380221 15.4712003 -24.52769002 21.00868874 -24 27 C-22.82437065 30.35054365 -21.66393967 32.23391576 -19.375 34.875 C-15.62339769 36.65207478 -12.06776721 36.64648443 -8 36 C-4.66668172 34.15603669 -3.38173417 32.76346834 -1.6875 29.375 C-0.20881078 22.1159802 -0.30195103 16.24066625 -3.734375 9.59375 C-5.30003837 7.62217391 -6.66427457 6.907848 -9 6 C-14.65832256 5.37129749 -17.67570077 6.27909136 -22 10 Z " fill="#FBFDFD" transform="translate(359,25)"/>
<path d="M0 0 C5.35739671 4.70554616 8.6383375 9.45570747 9.37109375 16.63671875 C9.62562015 25.08491736 9.22021479 31.94410528 4 39 C-0.89913084 44.02474958 -6.03910019 45.11704152 -12.875 45.375 C-19.24842479 45.24863718 -23.78445085 43.92771227 -28.52734375 39.609375 C-34.50371161 33.02670896 -34.52009122 25.31653351 -34.31640625 16.93359375 C-33.8041735 10.56546557 -32.12896844 6.24724447 -27.75 1.625 C-18.85655716 -3.63021623 -9.39023882 -5.08217226 0 0 Z M-22 10 C-24.8175245 15.37891042 -24.9600579 22.24386106 -23.46484375 28.09375 C-22.04471279 31.75660144 -20.61342996 34.38346554 -17 36 C-12.46842083 36.68016198 -9.11246166 36.61540432 -5.0625 34.375 C-1.13607248 29.85365922 -0.59321688 25.11347545 -0.75 19.3125 C-1.28561458 14.35806511 -2.47526204 10.35532263 -6.25 7 C-12.56360709 4.70414287 -16.97792759 5.5618895 -22 10 Z " fill="#FBFDFD" transform="translate(149,25)"/>
<path d="M0 0 C1.56331055 -0.0309375 1.56331055 -0.0309375 3.15820312 -0.0625 C10.13014518 -0.09795807 14.75435477 0.52246506 20.125 5.3125 C22.81874174 10.001606 23.45520428 14.9870398 22.40625 20.3125 C20.71362858 24.98735917 18.06789055 26.95218772 13.8125 29.25 C10.99491229 29.53460482 8.71306159 29.63874738 5.9375 29.5 C3.58625 29.4175 1.235 29.335 -1.1875 29.25 C-1.1875 34.86 -1.1875 40.47 -1.1875 46.25 C-4.4875 46.25 -7.7875 46.25 -11.1875 46.25 C-11.35469628 39.85976595 -11.51529776 33.46941397 -11.66967773 27.07885742 C-11.72318301 24.90303032 -11.77851865 22.72724745 -11.83569336 20.55151367 C-11.91736715 17.43157494 -11.99254532 14.31153847 -12.06640625 11.19140625 C-12.09344131 10.21224747 -12.12047638 9.23308868 -12.14833069 8.22425842 C-12.16842697 7.32340012 -12.18852325 6.42254181 -12.20922852 5.49438477 C-12.22921402 4.69718521 -12.24919952 3.89998566 -12.26979065 3.07862854 C-12.04415768 -1.93529333 -3.68930647 0.01792013 0 0 Z M-1.1875 8.25 C-1.1875 12.54 -1.1875 16.83 -1.1875 21.25 C4.33638547 21.58114874 4.33638547 21.58114874 9.8125 21.25 C12.29231735 19.28408798 12.29231735 19.28408798 12.8125 16.25 C12.82620127 13.07962329 12.82620127 13.07962329 11.8125 10.25 C8.49879 8.04086 7.4678979 8.02518447 3.625 8.125 C2.036875 8.16625 0.44875 8.2075 -1.1875 8.25 Z " fill="#FBFDFE" transform="translate(178.1875,22.75)"/>
<path d="M0 0 C0.99 0 1.98 0 3 0 C3 0.66 3 1.32 3 2 C3.66 2 4.32 2 5 2 C5.33 1.34 5.66 0.68 6 0 C6.33773437 0.5775 6.67546875 1.155 7.0234375 1.75 C7.46945313 2.4925 7.91546875 3.235 8.375 4 C8.81585938 4.7425 9.25671875 5.485 9.7109375 6.25 C10.34902344 7.11625 10.34902344 7.11625 11 8 C11.66 8 12.32 8 13 8 C13 8.66 13 9.32 13 10 C14.98 9.67 16.96 9.34 19 9 C22.02252547 14.68234788 22.80039966 18.75371545 21 25 C16.95361104 34.9113797 12.23696482 44.88248075 2.0625 49.5 C0.71641133 50.02135655 -0.63526375 50.52961471 -2 51 C-1.34 48.69 -0.68 46.38 0 44 C0.66 44 1.32 44 2 44 C2.66 41.36 3.32 38.72 4 36 C3.071875 36.20625 2.14375 36.4125 1.1875 36.625 C-2 37 -2 37 -5 35 C-5.37125 35.495 -5.7425 35.99 -6.125 36.5 C-8.74694393 38.59755514 -10.73842472 38.21743835 -14 38 C-14.33 38.99 -14.66 39.98 -15 41 C-15 40.34 -15 39.68 -15 39 C-18.0745356 39.7763932 -18.0745356 39.7763932 -20 42 C-20.495 40.515 -20.495 40.515 -21 39 C-22.5778125 39.0928125 -22.5778125 39.0928125 -24.1875 39.1875 C-28.16108064 38.992078 -29.91244563 38.4326186 -33 36 C-33 35.34 -33 34.68 -33 34 C-33.99 33.67 -34.98 33.34 -36 33 C-35.16855469 33.08378906 -34.33710937 33.16757813 -33.48046875 33.25390625 C-32.39378906 33.35574219 -31.30710937 33.45757812 -30.1875 33.5625 C-29.10855469 33.66691406 -28.02960937 33.77132812 -26.91796875 33.87890625 C-23.93517546 34.17577609 -23.93517546 34.17577609 -21 33 C-20.67 32.34 -20.34 31.68 -20 31 C-19.01 30.34 -18.02 29.68 -17 29 C-16.34 29.99 -15.68 30.98 -15 32 C-12.43717258 32.72965366 -12.43717258 32.72965366 -10 33 C-10.33 32.01 -10.66 31.02 -11 30 C-9.35 30.33 -7.7 30.66 -6 31 C-6.66 29.35 -7.32 27.7 -8 26 C-5.69 26.33 -3.38 26.66 -1 27 C-0.67 25.02 -0.34 23.04 0 21 C0.99 20.67 1.98 20.34 3 20 C3.84681133 14.91913204 4.09038099 10.15171623 4 5 C2.68 4.34 1.36 3.68 0 3 C0 2.01 0 1.02 0 0 Z M7 15 C8 17 8 17 8 17 Z M10 17 C11 19 11 19 11 19 Z M8 18 C6.5393715 20.64738916 6 21.89448334 6 25 C6.66 25 7.32 25 8 25 C8.33 22.69 8.66 20.38 9 18 C8.67 18 8.34 18 8 18 Z M13 20 C12.67 22.31 12.34 24.62 12 27 C13.97536745 26.65213292 13.97536745 26.65213292 16 26 C16.33 25.34 16.66 24.68 17 24 C16.01 24 15.02 24 14 24 C13.67 22.68 13.34 21.36 13 20 Z " fill="#4C86B4" transform="translate(73,33)"/>
<path d="M0 0 C11.88 0 23.76 0 36 0 C36.495 3.465 36.495 3.465 37 7 C36 8 36 8 33.05859375 8.09765625 C31.26615234 8.08025391 31.26615234 8.08025391 29.4375 8.0625 C27.64119141 8.04896484 27.64119141 8.04896484 25.80859375 8.03515625 C24.88175781 8.02355469 23.95492188 8.01195312 23 8 C23.24447876 8.99906372 23.24447876 8.99906372 23.49389648 10.01831055 C24.10166929 13.59898073 24.12448724 17.08872233 24.09765625 20.70703125 C24.0962413 21.43242599 24.09482635 22.15782074 24.09336853 22.90519714 C24.08779931 25.2076745 24.07525261 27.51005235 24.0625 29.8125 C24.05748102 31.37955588 24.05291881 32.9466133 24.04882812 34.51367188 C24.03783998 38.34248589 24.02059673 42.17122611 24 46 C20.37 46 16.74 46 13 46 C13 33.46 13 20.92 13 8 C8.71 8 4.42 8 0 8 C0 5.36 0 2.72 0 0 Z " fill="#FBFDFE" transform="translate(371,23)"/>
<path d="M0 0 C11.88 0 23.76 0 36 0 C36 2.64 36 5.28 36 8 C31.71 8 27.42 8 23 8 C23 20.54 23 33.08 23 46 C19.7 46 16.4 46 13 46 C13 33.46 13 20.92 13 8 C8.38 8 3.76 8 -1 8 C-0.67 5.36 -0.34 2.72 0 0 Z " fill="#FBFDFE" transform="translate(204,23)"/>
<path d="M0 0 C1.875 2.0625 1.875 2.0625 3 4 C4.32 3.34 5.64 2.68 7 2 C6.01 1.67 5.02 1.34 4 1 C4.66 0.34 5.32 -0.32 6 -1 C16.37617797 -0.62942222 24.26941817 3.37972125 31.73046875 10.48828125 C38.33016766 17.79225096 41.18772469 24.23831609 41 34 C40.29875 33.175 39.5975 32.35 38.875 31.5 C35.43906738 28.51223251 34.3534588 28.90535959 30 29 C28.25 27 28.25 27 27 25 C26.34 25 25.68 25 25 25 C24.34 25.99 23.68 26.98 23 28 C22.91363281 27.40832031 22.82726562 26.81664063 22.73828125 26.20703125 C21.75050174 20.6519043 20.65921169 17.54505237 16 14 C12.45363841 11.75301381 9.522857 9.89616884 5.25 10.1875 C4.5075 10.455625 3.765 10.72375 3 11 C1.8553125 11.2784375 1.8553125 11.2784375 0.6875 11.5625 C0.130625 11.706875 -0.42625 11.85125 -1 12 C-1.33 11.34 -1.66 10.68 -2 10 C-1.01 9.67 -0.02 9.34 1 9 C-0.60875 9.0928125 -0.60875 9.0928125 -2.25 9.1875 C-6.08945057 8.99552747 -7.38618481 8.71836779 -10 6 C-10 5.34 -10 4.68 -10 4 C-7.92446352 3.4465236 -6.15634036 3 -4 3 C-3.01 2.67 -2.02 2.34 -1 2 C-3.31 2 -5.62 2 -8 2 C-8.33 1.34 -8.66 0.68 -9 0 C-5.4314543 -1.18951523 -3.60804584 -0.97717908 0 0 Z M11 2 C14.07999946 5.67230705 16.2482602 6.56802365 21 7 C18.87330165 4.66063182 16.93775144 3.19346152 14 2 C13.01 2 12.02 2 11 2 Z M0 4 C1 6 1 6 1 6 Z M12 7 C14.62198774 9.15377564 16.64404172 10.40072174 20 11 C17.60490662 8.10067643 15.68754757 7.49831724 12 7 Z M21 12 C21.99 13.485 21.99 13.485 23 15 C23.66 14.67 24.32 14.34 25 14 C23.68 13.34 22.36 12.68 21 12 Z M26 16 C26.66 17.32 27.32 18.64 28 20 C28 19.01 28 18.02 28 17 C27.34 16.67 26.68 16.34 26 16 Z " fill="#46778D" transform="translate(53,7)"/>
<path d="M0 0 C0.99 0.33 1.98 0.66 3 1 C3 2.32 3 3.64 3 5 C3.66 4.01 4.32 3.02 5 2 C6.875 2.25 6.875 2.25 9 3 C9.268125 3.639375 9.53625 4.27875 9.8125 4.9375 C10.94389021 7.42453319 10.94389021 7.42453319 14.625 8.25 C15.73875 8.4975 16.8525 8.745 18 9 C17.67 9.66 17.34 10.32 17 11 C16.34 11 15.68 11 15 11 C15 12.32 15 13.64 15 15 C16.32 15.33 17.64 15.66 19 16 C19.22384382 17.72722728 19.42839969 19.45696007 19.625 21.1875 C19.79902344 22.63189453 19.79902344 22.63189453 19.9765625 24.10546875 C20.00249246 27.3078186 19.50608435 29.1870231 18 32 C17.01 32.66 16.02 33.32 15 34 C14.27617533 36.05925139 14.27617533 36.05925139 14 38 C12.02 38 10.04 38 8 38 C8.33 39.32 8.66 40.64 9 42 C7.35 41.67 5.7 41.34 4 41 C4.33 42.32 4.66 43.64 5 45 C3.68 44.67 2.36 44.34 1 44 C1.33 43.34 1.66 42.68 2 42 C1.01 42 0.02 42 -1 42 C-1 41.34 -1 40.68 -1 40 C-0.01 40 0.98 40 2 40 C1.690625 39.2575 1.38125 38.515 1.0625 37.75 C0.1905075 35.49307824 -0.47667007 33.3549847 -1 31 C0.65 30.67 2.3 30.34 4 30 C4 31.65 4 33.3 4 35 C5.2236068 35.0745356 5.2236068 35.0745356 7 34 C6.11785113 31.11785113 6.11785113 31.11785113 5 29 C2.97536745 28.34786708 2.97536745 28.34786708 1 28 C1.66 27.67 2.32 27.34 3 27 C3 26.34 3 25.68 3 25 C2.01 25 1.02 25 0 25 C-0.33 25.66 -0.66 26.32 -1 27 C-1 3.875 -1 3.875 0 0 Z M4 8 C3.34 9.32 2.68 10.64 2 12 C2.99 12 3.98 12 5 12 C4.67 10.68 4.34 9.36 4 8 Z M13 11 C14 13 14 13 14 13 Z M7 12 C6.34 13.65 5.68 15.3 5 17 C5.99 17.33 6.98 17.66 8 18 C8.66 16.02 9.32 14.04 10 12 C9.01 12 8.02 12 7 12 Z M0 18 C0 19.65 0 21.3 0 23 C0.99 22.01 1.98 21.02 3 20 C2.67 19.34 2.34 18.68 2 18 C1.34 18 0.68 18 0 18 Z M13 22 C12.67 23.32 12.34 24.64 12 26 C12.66 26 13.32 26 14 26 C13.67 24.68 13.34 23.36 13 22 Z M5 23 C5.33 24.32 5.66 25.64 6 27 C6 25.68 6 24.36 6 23 C5.67 23 5.34 23 5 23 Z M17 26 C18 29 18 29 18 29 Z M11 27 C10.67 27.99 10.34 28.98 10 30 C10.99 30 11.98 30 13 30 C13 29.01 13 28.02 13 27 C12.34 27 11.68 27 11 27 Z M8 27 C7.34 27.66 6.68 28.32 6 29 C6.99 29 7.98 29 9 29 C8.67 28.34 8.34 27.68 8 27 Z M11 32 C11 32.66 11 33.32 11 34 C11.66 34 12.32 34 13 34 C13 33.34 13 32.68 13 32 C12.34 32 11.68 32 11 32 Z " fill="#6EACCA" transform="translate(58,22)"/>
<path d="M0 0 C2.03140217 0.67492968 2.03140217 0.67492968 3.88671875 -0.0390625 C8.10962204 -0.93368115 12.17522531 0.88030221 16.0625 2.5 C18.34319399 4.01298007 20.09006375 5.57946996 22.0625 7.5 C22.7225 7.17 23.3825 6.84 24.0625 6.5 C24.0625 8.48 24.0625 10.46 24.0625 12.5 C18.3125 10.625 18.3125 10.625 16.0625 9.5 C15.5675 8.015 15.5675 8.015 15.0625 6.5 C13.4125 6.5 11.7625 6.5 10.0625 6.5 C9.5675 5.51 9.5675 5.51 9.0625 4.5 C7.7425 4.17 6.4225 3.84 5.0625 3.5 C5.0625 12.41 5.0625 21.32 5.0625 30.5 C4.7325 30.5 4.4025 30.5 4.0625 30.5 C4.03671875 29.96375 4.0109375 29.4275 3.984375 28.875 C3.37800027 20.49600375 1.21943456 12.58599653 -0.9375 4.5 C-1.9275 5.16 -2.9175 5.82 -3.9375 6.5 C-4.9275 6.603125 -5.9175 6.70625 -6.9375 6.8125 C-10.15042303 7.2042361 -10.15042303 7.2042361 -11.8125 10.0625 C-12.18375 10.866875 -12.555 11.67125 -12.9375 12.5 C-11.9475 13.16 -10.9575 13.82 -9.9375 14.5 C-9.6075 13.51 -9.2775 12.52 -8.9375 11.5 C-7.9475 11.5 -6.9575 11.5 -5.9375 11.5 C-7.13649698 14.5831351 -8.41450477 17.56279492 -9.9375 20.5 C-10.5975 20.17 -11.2575 19.84 -11.9375 19.5 C-11.9375 18.84 -11.9375 18.18 -11.9375 17.5 C-12.5975 17.5 -13.2575 17.5 -13.9375 17.5 C-13.9375 18.49 -13.9375 19.48 -13.9375 20.5 C-15.2575 20.5 -16.5775 20.5 -17.9375 20.5 C-17.6075 25.78 -17.2775 31.06 -16.9375 36.5 C-15.9475 36.5 -14.9575 36.5 -13.9375 36.5 C-13.81375 37.2425 -13.69 37.985 -13.5625 38.75 C-12.98263299 41.30141485 -12.20041261 43.2267573 -10.9375 45.5 C-13.9075 45.995 -13.9075 45.995 -16.9375 46.5 C-16.9375 45.18 -16.9375 43.86 -16.9375 42.5 C-17.5975 42.5 -18.2575 42.5 -18.9375 42.5 C-19.370625 41.5409375 -19.370625 41.5409375 -19.8125 40.5625 C-20.76573451 38.34793921 -20.76573451 38.34793921 -22.9375 37.5 C-25.93330555 30.49314369 -24.51865115 23.68815637 -22.9375 16.5 C-22.2775 16.5 -21.6175 16.5 -20.9375 16.5 C-20.6075 13.86 -20.2775 11.22 -19.9375 8.5 C-18.6175 8.5 -17.2975 8.5 -15.9375 8.5 C-15.9375 7.51 -15.9375 6.52 -15.9375 5.5 C-14.9475 5.5 -13.9575 5.5 -12.9375 5.5 C-12.6075 4.51 -12.2775 3.52 -11.9375 2.5 C-8.5625 1.375 -8.5625 1.375 -4.9375 0.5 C-1.9375 -0.5 -1.9375 -0.5 0 0 Z " fill="#3585B1" transform="translate(50.9375,18.5)"/>
<path d="M0 0 C3.3 0 6.6 0 10 0 C10 15.18 10 30.36 10 46 C6.7 46 3.4 46 0 46 C0 30.82 0 15.64 0 0 Z " fill="#FBFDFE" transform="translate(246,23)"/>
<path d="M0 0 C1.11375 0.495 1.11375 0.495 2.25 1 C5.13883312 2.22782871 5.13883312 2.22782871 9 2 C9.20086443 5.71599191 9.1519437 6.77208445 7 10 C6.34 10 5.68 10 5 10 C4.87625 10.763125 4.7525 11.52625 4.625 12.3125 C4 15 4 15 2 18 C-5.71622879 21.85811439 -15.73832264 20.27102729 -24 19 C-23.01 18.01 -22.02 17.02 -21 16 C-21.99 16 -22.98 16 -24 16 C-23.34 14.35 -22.68 12.7 -22 11 C-17.44615385 10.63076923 -17.44615385 10.63076923 -15.1875 12.5 C-14.795625 12.995 -14.40375 13.49 -14 14 C-13.34 12.68 -12.68 11.36 -12 10 C-11.34 10 -10.68 10 -10 10 C-10.33 9.01 -10.66 8.02 -11 7 C-9.68 6.67 -8.36 6.34 -7 6 C-6.67 6.66 -6.34 7.32 -6 8 C-4.35 7.67 -2.7 7.34 -1 7 C-1.20625 6.21625 -1.4125 5.4325 -1.625 4.625 C-1.74875 3.75875 -1.8725 2.8925 -2 2 C-1.34 1.34 -0.68 0.68 0 0 Z M3 4 C3.33 4.99 3.66 5.98 4 7 C4 6.01 4 5.02 4 4 C3.67 4 3.34 4 3 4 Z " fill="#547B86" transform="translate(68,67)"/>
<path d="M0 0 C2.475 0.495 2.475 0.495 5 1 C2.59036766 10.93444913 -2.05982211 21.21213817 -10 28 C-12.91206251 29.61143689 -15.86863451 30.87966701 -19 32 C-18.01 28.535 -18.01 28.535 -17 25 C-16.34 25 -15.68 25 -15 25 C-14.34 22.36 -13.68 19.72 -13 17 C-13.94875 17.20625 -14.8975 17.4125 -15.875 17.625 C-16.90625 17.74875 -17.9375 17.8725 -19 18 C-19.66 17.34 -20.32 16.68 -21 16 C-21 15.01 -21 14.02 -21 13 C-15.72413793 9.93263833 -15.72413793 9.93263833 -12.3125 10.25 C-10.53900418 10.82518783 -8.76876104 11.41041299 -7 12 C-7 11.34 -7 10.68 -7 10 C-6.4225 9.95875 -5.845 9.9175 -5.25 9.875 C-1.79072845 8.52972773 -0.71865541 6.1826952 1 3 C0.67 2.01 0.34 1.02 0 0 Z " fill="#305766" transform="translate(90,52)"/>
<path d="M0 0 C1.98180213 1.79305907 3.20358221 3.3501614 4.5625 5.6875 C5.2740625 6.8321875 5.2740625 6.8321875 6 8 C6.66 8 7.32 8 8 8 C8 8.66 8 9.32 8 10 C9.98 9.67 11.96 9.34 14 9 C17.07692308 15.4 17.07692308 15.4 16.6875 18.4375 C16.460625 18.953125 16.23375 19.46875 16 20 C14.68 20.33 13.36 20.66 12 21 C12.66 21.33 13.32 21.66 14 22 C13.34 22.66 12.68 23.32 12 24 C10.68 24 9.36 24 8 24 C7.67 24.99 7.34 25.98 7 27 C7.99 27.33 8.98 27.66 10 28 C9.01 28.66 8.02 29.32 7 30 C6.34 29.67 5.68 29.34 5 29 C5 29.66 5 30.32 5 31 C3.14375 30.690625 3.14375 30.690625 1.25 30.375 C-2.11909835 29.93892876 -4.12841921 29.96596361 -7 32 C-7.66 31.34 -8.32 30.68 -9 30 C-8.38125 29.773125 -7.7625 29.54625 -7.125 29.3125 C-4.38589791 27.62070165 -3.94975528 26.00755839 -3 23 C-2.34 23 -1.68 23 -1 23 C-1 23.99 -1 24.98 -1 26 C0.32 25.67 1.64 25.34 3 25 C2.9278125 24.34773438 2.855625 23.69546875 2.78125 23.0234375 C2.28243834 18.3262944 1.87548754 13.73147344 2 9 C1.34 8.67 0.68 8.34 0 8 C0 5.36 0 2.72 0 0 Z M5 17 C6 19 6 19 6 19 Z " fill="#416D8A" transform="translate(78,33)"/>
<path d="M0 0 C1.65 0.33 3.3 0.66 5 1 C5.33 1.99 5.66 2.98 6 4 C6.66 4.268125 7.32 4.53625 8 4.8125 C8.66 5.204375 9.32 5.59625 10 6 C10.75 9.125 10.75 9.125 11 12 C10.34 12 9.68 12 9 12 C9 13.32 9 14.64 9 16 C8.01 15.67 7.02 15.34 6 15 C6 14.01 6 13.02 6 12 C5.67 12.66 5.34 13.32 5 14 C4.34 14 3.68 14 3 14 C3 15.32 3 16.64 3 18 C2.2265625 18.680625 2.2265625 18.680625 1.4375 19.375 C0.963125 19.91125 0.48875 20.4475 0 21 C0.23283149 24.14921909 0.23283149 24.14921909 1 27 C-0.32 27.33 -1.64 27.66 -3 28 C-3 26.68 -3 25.36 -3 24 C-2.34 24 -1.68 24 -1 24 C-1 23.34 -1 22.68 -1 22 C-2.32 22.33 -3.64 22.66 -5 23 C-5.33 22.34 -5.66 21.68 -6 21 C-6.99 20.67 -7.98 20.34 -9 20 C-8.814375 19.113125 -8.62875 18.22625 -8.4375 17.3125 C-8.01957516 14.14821189 -8.19222258 12.05160358 -9 9 C-8.34 9 -7.68 9 -7 9 C-6.67 8.34 -6.34 7.68 -6 7 C-7.32 7.33 -8.64 7.66 -10 8 C-9.67 6.68 -9.34 5.36 -9 4 C-7.68 4 -6.36 4 -5 4 C-4.67 3.01 -4.34 2.02 -4 1 C-3.67 1.99 -3.34 2.98 -3 4 C-2.34 3.67 -1.68 3.34 -1 3 C-0.67 2.01 -0.34 1.02 0 0 Z M-5 5 C-4.67 5.66 -4.34 6.32 -4 7 C-3.01 6.67 -2.02 6.34 -1 6 C-2.32 5.67 -3.64 5.34 -5 5 Z M1 5 C0.67 6.32 0.34 7.64 0 9 C1.98 9 3.96 9 6 9 C4.63676257 6.9600281 4.63676257 6.9600281 3 5 C2.34 5 1.68 5 1 5 Z M-3 12 C-3 12.99 -3 13.98 -3 15 C-2.01 14.67 -1.02 14.34 0 14 C-0.33 13.34 -0.66 12.68 -1 12 C-1.66 12 -2.32 12 -3 12 Z " fill="#57A5C2" transform="translate(42,35)"/>
<path d="M0 0 C0 0.66 0 1.32 0 2 C0.99 2.33 1.98 2.66 3 3 C3 4.32 3 5.64 3 7 C0.6875 9 0.6875 9 -2 11 C-2.515625 11.70125 -3.03125 12.4025 -3.5625 13.125 C-5 15 -5 15 -7.0625 15.8125 C-9.42141168 16.97590439 -9.42141168 16.97590439 -10.25 20.625 C-10.4975 21.73875 -10.745 22.8525 -11 24 C-11.99 24 -12.98 24 -14 24 C-14.33 24.99 -14.66 25.98 -15 27 C-15.66 26.67 -16.32 26.34 -17 26 C-16.814375 24.906875 -16.62875 23.81375 -16.4375 22.6875 C-15.7421932 19.06375867 -15.7421932 19.06375867 -17 16 C-15.71410156 13.53486752 -14.39882822 11.30940426 -12.875 9 C-12.483125 8.3709375 -12.09125 7.741875 -11.6875 7.09375 C-5.82894164 -1.94298055 -5.82894164 -1.94298055 0 0 Z " fill="#47634F" transform="translate(33,13)"/>
<path d="M0 0 C0.66 0 1.32 0 2 0 C2 0.99 2 1.98 2 3 C2.66 3.33 3.32 3.66 4 4 C4.33 3.34 4.66 2.68 5 2 C5.33 2.66 5.66 3.32 6 4 C6.99 4.33 7.98 4.66 9 5 C11.28038338 8.24054481 11.25274641 11.12455506 11 15 C10.67 15.66 10.34 16.32 10 17 C10.66 17.33 11.32 17.66 12 18 C9.66666667 18 7.33333333 18 5 18 C3.741875 18.350625 2.48375 18.70125 1.1875 19.0625 C-2.8995338 20.15902126 -5.8812949 19.85806356 -10 19 C-10 18.34 -10 17.68 -10 17 C-8.68 17 -7.36 17 -6 17 C-6 16.34 -6 15.68 -6 15 C-5.01 15 -4.02 15 -3 15 C-3.99 14.34 -4.98 13.68 -6 13 C-5.67 12.01 -5.34 11.02 -5 10 C-4.01 10 -3.02 10 -2 10 C-2.04125 8.906875 -2.0825 7.81375 -2.125 6.6875 C-2 3 -2 3 0 0 Z M2 5 C2 5.99 2 6.98 2 8 C2.66 8 3.32 8 4 8 C3.67 7.01 3.34 6.02 3 5 C2.67 5 2.34 5 2 5 Z " fill="#4F98CB" transform="translate(47,47)"/>
<path d="M0 0 C0.66 0 1.32 0 2 0 C2.33 0.99 2.66 1.98 3 3 C3.66 3.33 4.32 3.66 5 4 C5.33 3.01 5.66 2.02 6 1 C6.99 1 7.98 1 9 1 C7.80100302 4.0831351 6.52299523 7.06279492 5 10 C4.34 9.67 3.68 9.34 3 9 C3 8.34 3 7.68 3 7 C2.34 7 1.68 7 1 7 C1 7.99 1 8.98 1 10 C-0.32 10 -1.64 10 -3 10 C-2.67 15.28 -2.34 20.56 -2 26 C-1.01 26 -0.02 26 1 26 C1.12375 26.7425 1.2475 27.485 1.375 28.25 C1.95486701 30.80141485 2.73708739 32.7267573 4 35 C1.03 35.495 1.03 35.495 -2 36 C-2 34.68 -2 33.36 -2 32 C-2.66 32 -3.32 32 -4 32 C-4.28875 31.360625 -4.5775 30.72125 -4.875 30.0625 C-5.82823451 27.84793921 -5.82823451 27.84793921 -8 27 C-10.83735244 20.22188029 -9.68193713 13.9218182 -8 7 C-6 8 -6 8 -5 10 C-2.35534962 6.8745041 -1.15585285 3.91211733 0 0 Z " fill="#3C8EAB" transform="translate(36,29)"/>
<path d="M0 0 C7.37243099 0.69652328 11.1326881 4.72247704 16 10 C19.50526748 14.77478085 22.06976371 19.10501944 23 25 C18.85096085 24.38984718 15.53836432 23.28027923 12 21 C11.731875 20.113125 11.46375 19.22625 11.1875 18.3125 C9.32727333 13.12344665 5.15826873 10.44453604 1 7 C0.34 6.34 -0.32 5.68 -1 5 C-0.34 4.34 0.32 3.68 1 3 C0.67 2.01 0.34 1.02 0 0 Z " fill="#2D5A6F" transform="translate(71,10)"/>
<path d="M0 0 C0.33 0.66 0.66 1.32 1 2 C0.01 2.33 -0.98 2.66 -2 3 C-0.7625 4.175625 -0.7625 4.175625 0.5 5.375 C3 8 3 8 3 10 C2.01 10.495 2.01 10.495 1 11 C1 11.99 1 12.98 1 14 C-1.31 14 -3.62 14 -6 14 C-6 14.99 -6 15.98 -6 17 C-6.99 17.33 -7.98 17.66 -9 18 C-9 18.66 -9 19.32 -9 20 C-10.32 20 -11.64 20 -13 20 C-13.99 22.475 -13.99 22.475 -15 25 C-16.32 24.34 -17.64 23.68 -19 23 C-19 22.34 -19 21.68 -19 21 C-18.443125 20.79375 -17.88625 20.5875 -17.3125 20.375 C-15.02890674 19.01718779 -14.0008439 17.92057214 -12.375 15.875 C-11.199375 14.451875 -11.199375 14.451875 -10 13 C-9.34 13 -8.68 13 -8 13 C-8.33 11.68 -8.66 10.36 -9 9 C-10.32 8.67 -11.64 8.34 -13 8 C-13 6.68 -13 5.36 -13 4 C-4.738041 -0.59225513 -4.738041 -0.59225513 0 0 Z " fill="#2C6F7D" transform="translate(44,7)"/>
<path d="M0 0 C1.32 0.66 2.64 1.32 4 2 C3.01 2.33 2.02 2.66 1 3 C1 4.32 1 5.64 1 7 C2.32 7.33 3.64 7.66 5 8 C5.22384382 9.72722728 5.42839969 11.45696007 5.625 13.1875 C5.74101563 14.15042969 5.85703125 15.11335938 5.9765625 16.10546875 C6.00237206 19.29294883 5.49859116 21.20000073 4 24 C1.375 25.3125 1.375 25.3125 -1 26 C-1 25.34 -1 24.68 -1 24 C-1.66 24 -2.32 24 -3 24 C-3 23.34 -3 22.68 -3 22 C-1.35 21.67 0.3 21.34 2 21 C0.68 19.35 -0.64 17.7 -2 16 C-2.928125 16.309375 -2.928125 16.309375 -3.875 16.625 C-4.57625 16.74875 -5.2775 16.8725 -6 17 C-6.66 16.34 -7.32 15.68 -8 15 C-8 14.34 -8 13.68 -8 13 C-7.34 13 -6.68 13 -6 13 C-6 12.34 -6 11.68 -6 11 C-5.01 11 -4.02 11 -3 11 C-3 10.01 -3 9.02 -3 8 C-3.66 8 -4.32 8 -5 8 C-4 5 -4 5 -1 3 C-0.67 2.01 -0.34 1.02 0 0 Z M3 18 C4 21 4 21 4 21 Z " fill="#5297B4" transform="translate(72,30)"/>
<path d="M0 0 C1.32 0.99 2.64 1.98 4 3 C3.01 3.495 3.01 3.495 2 4 C1.80764621 9.11574343 1.80764621 9.11574343 2.5625 14.125 C3.20609757 16.8832753 2.56045077 19.26001843 2 22 C-0.97 22 -3.94 22 -7 22 C-8.81975482 16.87160006 -6.8599099 12.82315618 -5 8 C-4.01 8 -3.02 8 -2 8 C-1.855625 6.865625 -1.71125 5.73125 -1.5625 4.5625 C-1 1 -1 1 0 0 Z " fill="#598E6B" transform="translate(24,29)"/>
<path d="M0 0 C0.66 0.33 1.32 0.66 2 1 C1.814375 2.093125 1.62875 3.18625 1.4375 4.3125 C0.7421932 7.93624133 0.7421932 7.93624133 2 11 C1.83988879 13.70123106 1.39559392 16.31875231 1 19 C3.64 19.33 6.28 19.66 9 20 C9.33 21.65 9.66 23.3 10 25 C8.68 25 7.36 25 6 25 C6 25.66 6 26.32 6 27 C4.68 27.33 3.36 27.66 2 28 C1.67 26.68 1.34 25.36 1 24 C0.01 24.33 -0.98 24.66 -2 25 C-3.56802389 15.98386261 -3.76504038 8.47134086 0 0 Z " fill="#438876" transform="translate(16,31)"/>
<path d="M0 0 C5.05146033 0.44571709 7.33434931 2.75090053 11 6 C11.33 6 11.66 6 12 6 C12.06058594 6.77730469 12.12117188 7.55460937 12.18359375 8.35546875 C12.73467787 11.18742244 12.73467787 11.18742244 15.28515625 12.36328125 C16.20167969 12.67652344 17.11820313 12.98976563 18.0625 13.3125 C18.98160156 13.63863281 19.90070313 13.96476562 20.84765625 14.30078125 C21.55792969 14.53152344 22.26820312 14.76226562 23 15 C23 16.98 23 18.96 23 21 C22.29875 20.175 21.5975 19.35 20.875 18.5 C17.43906738 15.51223251 16.3534588 15.90535959 12 16 C10.25 14 10.25 14 9 12 C8.34 12 7.68 12 7 12 C6.01 13.485 6.01 13.485 5 15 C4.87882812 14.38511719 4.75765625 13.77023438 4.6328125 13.13671875 C4.46523437 12.32847656 4.29765625 11.52023438 4.125 10.6875 C3.96257812 9.88699219 3.80015625 9.08648437 3.6328125 8.26171875 C3.05521001 5.74698882 3.05521001 5.74698882 1 3 C0.67 2.01 0.34 1.02 0 0 Z " fill="#387A98" transform="translate(71,20)"/>
<path d="M0 0 C1.98180213 1.79305907 3.20358221 3.3501614 4.5625 5.6875 C5.2740625 6.8321875 5.2740625 6.8321875 6 8 C6.66 8 7.32 8 8 8 C8 8.66 8 9.32 8 10 C9.98 9.67 11.96 9.34 14 9 C14.33 10.65 14.66 12.3 15 14 C14.01 14 13.02 14 12 14 C12 14.66 12 15.32 12 16 C8.53846154 19 8.53846154 19 6 19 C5.67 20.32 5.34 21.64 5 23 C4.34 22.67 3.68 22.34 3 22 C1.70069762 17.71230214 1.92483226 13.43489655 2 9 C1.34 8.67 0.68 8.34 0 8 C0 5.36 0 2.72 0 0 Z " fill="#4E939F" transform="translate(78,33)"/>
<path d="M0 0 C1.875 2.0625 1.875 2.0625 3 4 C3.99 3.67 4.98 3.34 6 3 C6.66 3.33 7.32 3.66 8 4 C8 5.65 8 7.3 8 9 C3.545 10.485 3.545 10.485 -1 12 C-1.33 11.34 -1.66 10.68 -2 10 C-1.01 9.67 -0.02 9.34 1 9 C-0.60875 9.0928125 -0.60875 9.0928125 -2.25 9.1875 C-6.08945057 8.99552747 -7.38618481 8.71836779 -10 6 C-10 5.34 -10 4.68 -10 4 C-7.92446352 3.4465236 -6.15634036 3 -4 3 C-3.01 2.67 -2.02 2.34 -1 2 C-3.31 2 -5.62 2 -8 2 C-8.33 1.34 -8.66 0.68 -9 0 C-5.4314543 -1.18951523 -3.60804584 -0.97717908 0 0 Z M0 4 C1 6 1 6 1 6 Z " fill="#819A89" transform="translate(53,7)"/>
<path d="M0 0 C0.66 0 1.32 0 2 0 C3.38442 1.96498322 4.71203834 3.97048465 6 6 C6.5775 6.7425 7.155 7.485 7.75 8.25 C9 10 9 10 9 12 C10.32 12.33 11.64 12.66 13 13 C13 12.34 13 11.68 13 11 C13.66 11 14.32 11 15 11 C15.33 11.99 15.66 12.98 16 14 C15.34 14 14.68 14 14 14 C13.67 15.32 13.34 16.64 13 18 C12.34 18 11.68 18 11 18 C11 18.66 11 19.32 11 20 C7.34683329 18.75023244 6.21934164 18.32901247 4 15 C4.04125 14.030625 4.0825 13.06125 4.125 12.0625 C4.32463537 8.89860829 4.32463537 8.89860829 2.0625 6.875 C1.381875 6.25625 0.70125 5.6375 0 5 C-0.8125 2.8125 -0.8125 2.8125 -1 1 C-0.67 0.67 -0.34 0.34 0 0 Z " fill="#38738F" transform="translate(25,56)"/>
<path d="M0 0 C0.99 0.33 1.98 0.66 3 1 C3.67939174 2.99571323 4.34561559 4.99594773 5 7 C5.99 7.66 6.98 8.32 8 9 C8.40843923 11.71203652 8.13336867 14.2437142 8 17 C7.01 17.33 6.02 17.66 5 18 C5 17.34 5 16.68 5 16 C4.01 16 3.02 16 2 16 C2 15.01 2 14.02 2 13 C1.34 13 0.68 13 0 13 C0 12.34 0 11.68 0 11 C-0.99 10.34 -1.98 9.68 -3 9 C-3.8125 6 -3.8125 6 -4 3 C-3.34 2.34 -2.68 1.68 -2 1 C-1.34 1.33 -0.68 1.66 0 2 C0 1.34 0 0.68 0 0 Z " fill="#357287" transform="translate(22,56)"/>
<path d="M0 0 C0 0.99 0 1.98 0 3 C-1.32 3 -2.64 3 -4 3 C-4 3.66 -4 4.32 -4 5 C-5.8125 7.125 -5.8125 7.125 -8 9 C-8.99 9 -9.98 9 -11 9 C-11.2475 10.051875 -11.495 11.10375 -11.75 12.1875 C-12.76700786 15.8133541 -14.45373429 18.19910772 -17 21 C-17.66 19.02 -18.32 17.04 -19 15 C-18.34 15 -17.68 15 -17 15 C-16.67 12.36 -16.34 9.72 -16 7 C-14.68 7 -13.36 7 -12 7 C-12 6.01 -12 5.02 -12 4 C-11.01 4 -10.02 4 -9 4 C-8.67 3.01 -8.34 2.02 -8 1 C-5.29120665 -0.35439668 -2.99066732 -0.06501451 0 0 Z " fill="#186CAC" transform="translate(47,20)"/>
<path d="M0 0 C0.33 0 0.66 0 1 0 C1.12375 1.134375 1.2475 2.26875 1.375 3.4375 C1.58125 4.613125 1.7875 5.78875 2 7 C2.66 7.33 3.32 7.66 4 8 C3.67 8.66 3.34 9.32 3 10 C2.01 10.33 1.02 10.66 0 11 C-0.66 11.66 -1.32 12.32 -2 13 C-2.33 12.01 -2.66 11.02 -3 10 C-4.5778125 10.0928125 -4.5778125 10.0928125 -6.1875 10.1875 C-10.16108064 9.992078 -11.91244563 9.4326186 -15 7 C-15 6.34 -15 5.68 -15 5 C-15.99 4.67 -16.98 4.34 -18 4 C-17.16855469 4.08378906 -16.33710937 4.16757813 -15.48046875 4.25390625 C-13.85044922 4.40666016 -13.85044922 4.40666016 -12.1875 4.5625 C-11.10855469 4.66691406 -10.02960937 4.77132812 -8.91796875 4.87890625 C-5.93517546 5.17577609 -5.93517546 5.17577609 -3 4 C-2.67 3.34 -2.34 2.68 -2 2 C-1.34 1.34 -0.68 0.68 0 0 Z " fill="#286BAB" transform="translate(55,62)"/>
<path d="M0 0 C3.94033915 4.75558173 7.11084626 8.7759238 8 15 C3.85652915 14.39066605 0.51309153 13.31544669 -3 11 C-4.125 8.125 -4.125 8.125 -4 5 C-2.0625 2.125 -2.0625 2.125 0 0 Z " fill="#306372" transform="translate(86,20)"/>
<path d="M0 0 C0.66 0 1.32 0 2 0 C2.33 0.99 2.66 1.98 3 3 C2.67 3.66 2.34 4.32 2 5 C3.32 5.66 4.64 6.32 6 7 C5.34 8.32 4.68 9.64 4 11 C3.34 10.34 2.68 9.68 2 9 C2 8.34 2 7.68 2 7 C1.01 7.33 0.02 7.66 -1 8 C-1.73323796 10.01508358 -1.73323796 10.01508358 -2 12 C-3.32 11.67 -4.64 11.34 -6 11 C-6 10.34 -6 9.68 -6 9 C-9.58327753 7.99782936 -9.58327753 7.99782936 -13 9 C-12.34 7.35 -11.68 5.7 -11 4 C-6.44615385 3.63076923 -6.44615385 3.63076923 -4.1875 5.5 C-3.795625 5.995 -3.40375 6.49 -3 7 C-2.34 5.68 -1.68 4.36 -1 3 C-0.34 3 0.32 3 1 3 C0.67 2.01 0.34 1.02 0 0 Z " fill="#5A786F" transform="translate(57,74)"/>
<path d="M0 0 C0.99 0 1.98 0 3 0 C2.30058404 3.14737182 1.23921302 6.02588876 0 9 C0.99 9.33 1.98 9.66 3 10 C2.01 11.32 1.02 12.64 0 14 C-2.4375 13.3125 -2.4375 13.3125 -5 12 C-5.8125 9.375 -5.8125 9.375 -6 7 C-7.32 7.33 -8.64 7.66 -10 8 C-9.67 6.68 -9.34 5.36 -9 4 C-7.68 4 -6.36 4 -5 4 C-4.67 3.01 -4.34 2.02 -4 1 C-3.67 1.99 -3.34 2.98 -3 4 C-2.34 3.67 -1.68 3.34 -1 3 C-0.67 2.01 -0.34 1.02 0 0 Z M-5 5 C-4.67 5.66 -4.34 6.32 -4 7 C-3.01 6.67 -2.02 6.34 -1 6 C-2.32 5.67 -3.64 5.34 -5 5 Z " fill="#63AAC8" transform="translate(42,35)"/>
<path d="M0 0 C0.99 0.33 1.98 0.66 3 1 C3 1.66 3 2.32 3 3 C3.99 3.33 4.98 3.66 6 4 C6 5.32 6 6.64 6 8 C3 10.25 3 10.25 0 12 C0 11.01 0 10.02 0 9 C-1.65 9 -3.3 9 -5 9 C-5 8.34 -5 7.68 -5 7 C-5.66 6.67 -6.32 6.34 -7 6 C-2.25 1.125 -2.25 1.125 0 0 Z " fill="#2B6370" transform="translate(30,12)"/>
<path d="M0 0 C0.66666667 2 1.33333333 4 2 6 C2 5.34 2 4.68 2 4 C2.66 4 3.32 4 4 4 C4.33 3.34 4.66 2.68 5 2 C5.66 3.65 6.32 5.3 7 7 C6.01 7.495 6.01 7.495 5 8 C5.33 9.32 5.66 10.64 6 12 C4.35 11.67 2.7 11.34 1 11 C1.33 12.32 1.66 13.64 2 15 C0.68 14.67 -0.64 14.34 -2 14 C-1.67 13.34 -1.34 12.68 -1 12 C-1.99 12 -2.98 12 -4 12 C-4 11.34 -4 10.68 -4 10 C-3.01 10 -2.02 10 -1 10 C-1.309375 9.2575 -1.61875 8.515 -1.9375 7.75 C-2.8094925 5.49307824 -3.47667007 3.3549847 -4 1 C-2.68 0.67 -1.36 0.34 0 0 Z " fill="#64A1C9" transform="translate(61,52)"/>
<path d="M0 0 C1.65 0.33 3.3 0.66 5 1 C4.57316761 2.58624235 4.13303842 4.1689098 3.6875 5.75 C3.44386719 6.63171875 3.20023438 7.5134375 2.94921875 8.421875 C1.97874669 11.05772505 0.78994356 12.85407326 -1 15 C-1.66 14.01 -2.32 13.02 -3 12 C-4.1446875 12.495 -4.1446875 12.495 -5.3125 13 C-8 14 -8 14 -11 14 C-11.33 12.68 -11.66 11.36 -12 10 C-9.525 10.99 -9.525 10.99 -7 12 C-7 11.34 -7 10.68 -7 10 C-6.4225 9.95875 -5.845 9.9175 -5.25 9.875 C-1.79072845 8.52972773 -0.71865541 6.1826952 1 3 C0.67 2.01 0.34 1.02 0 0 Z " fill="#395F72" transform="translate(90,52)"/>
<path d="M0 0 C0.66 0 1.32 0 2 0 C2 0.99 2 1.98 2 3 C2.804375 3.433125 3.60875 3.86625 4.4375 4.3125 C7 6 7 6 7.8125 9.1875 C7.874375 10.115625 7.93625 11.04375 8 12 C7.01 12.33 6.02 12.66 5 13 C4.34 12.34 3.68 11.68 3 11 C2.67 11.66 2.34 12.32 2 13 C0.35 12.67 -1.3 12.34 -3 12 C-2.88541307 10.56163249 -2.75790884 9.12429034 -2.625 7.6875 C-2.55539063 6.88699219 -2.48578125 6.08648437 -2.4140625 5.26171875 C-2 3 -2 3 0 0 Z M2 5 C2 5.99 2 6.98 2 8 C2.66 8 3.32 8 4 8 C3.67 7.01 3.34 6.02 3 5 C2.67 5 2.34 5 2 5 Z " fill="#62A3D5" transform="translate(47,47)"/>
<path d="M0 0 C0.99 0 1.98 0 3 0 C3 0.66 3 1.32 3 2 C3.99 2.33 4.98 2.66 6 3 C5.979375 3.804375 5.95875 4.60875 5.9375 5.4375 C5.70366379 7.93354885 5.70366379 7.93354885 7 9 C7.09932392 11.31074168 7.12969618 13.62462942 7.125 15.9375 C7.12757812 17.20464844 7.13015625 18.47179687 7.1328125 19.77734375 C7 23 7 23 6 25 C5.34 25 4.68 25 4 25 C2.82718556 20.69968038 3.33325041 17.37091396 4 13 C4.08444142 10.32602163 4.04695276 7.67630739 4 5 C2.68 4.34 1.36 3.68 0 3 C0 2.01 0 1.02 0 0 Z " fill="#2E80B7" transform="translate(73,33)"/>
<path d="M0 0 C-0.185625 0.7425 -0.37125 1.485 -0.5625 2.25 C-0.99203108 4.94990963 -0.85122974 6.44631077 0 9 C-0.99 8.67 -1.98 8.34 -3 8 C-3 7.34 -3 6.68 -3 6 C-4.65 6 -6.3 6 -8 6 C-8.33 6.66 -8.66 7.32 -9 8 C-10.32 7.34 -11.64 6.68 -13 6 C-11 3 -11 3 -10 2 C-9.67 1.34 -9.34 0.68 -9 0 C-5.65506316 -0.99444068 -3.31044803 -1.10348268 0 0 Z " fill="#67B3D1" transform="translate(50,25)"/>
<path d="M0 0 C3.54293666 1.86470351 5.77228817 3.09364418 7 7 C7.32142857 12.35714286 7.32142857 12.35714286 6 15 C6.66 15.33 7.32 15.66 8 16 C5.66666667 16 3.33333333 16 1 16 C-0.61949011 13.42786866 -1.04408751 12.32330841 -0.625 9.25 C-0.41875 8.5075 -0.2125 7.765 0 7 C0.33 8.32 0.66 9.64 1 11 C1.66 10.67 2.32 10.34 3 10 C2.38722388 7.03824877 1.74627478 5.61941217 0 3 C0 2.01 0 1.02 0 0 Z " fill="#4692C5" transform="translate(51,49)"/>
<path d="M0 0 C2 2 2 2 3 4 C3.66 4.2475 4.32 4.495 5 4.75 C7 6 7 6 7.75 9.125 C7.87375 10.548125 7.87375 10.548125 8 12 C7.34 12 6.68 12 6 12 C6 13.32 6 14.64 6 16 C5.01 15.67 4.02 15.34 3 15 C3 14.01 3 13.02 3 12 C2.01 12 1.02 12 0 12 C-0.33 11.01 -0.66 10.02 -1 9 C-0.01 8.67 0.98 8.34 2 8 C0.68 6.68 -0.64 5.36 -2 4 C-1.34 2.68 -0.68 1.36 0 0 Z " fill="#62A5BE" transform="translate(45,35)"/>
<path d="M0 0 C4.92307692 4.30769231 4.92307692 4.30769231 5.3125 7.8125 C5.1578125 8.8953125 5.1578125 8.8953125 5 10 C3.35 10 1.7 10 0 10 C0.33 10.99 0.66 11.98 1 13 C-0.32 12.67 -1.64 12.34 -3 12 C-2.14285714 3.42857143 -2.14285714 3.42857143 0 0 Z " fill="#659563" transform="translate(19,38)"/>
<path d="M0 0 C0.66 0.66 1.32 1.32 2 2 C4.10820797 1.6814823 4.10820797 1.6814823 6 1 C6 2.65 6 4.3 6 6 C5.34 6 4.68 6 4 6 C3.34 7.65 2.68 9.3 2 11 C-0.5625 8.8125 -0.5625 8.8125 -3 6 C-2.9375 3.25 -2.9375 3.25 -2 1 C-1.34 0.67 -0.68 0.34 0 0 Z " fill="#2A5C74" transform="translate(52,71)"/>
<path d="M0 0 C0.66 0 1.32 0 2 0 C1.95875 0.9075 1.9175 1.815 1.875 2.75 C1.99720783 5.92740358 2.46526859 7.31422004 4 10 C4 10.66 4 11.32 4 12 C5.32 12.33 6.64 12.66 8 13 C8.103125 13.61875 8.20625 14.2375 8.3125 14.875 C8.87525373 17.36526484 8.87525373 17.36526484 12 19 C10.02 19.33 8.04 19.66 6 20 C6 18.68 6 17.36 6 16 C5.34 16 4.68 16 4 16 C3.71125 15.360625 3.4225 14.72125 3.125 14.0625 C2.17176549 11.84793921 2.17176549 11.84793921 0 11 C0 7.37 0 3.74 0 0 Z " fill="#3285AC" transform="translate(28,45)"/>
<path d="M0 0 C0.66 0.33 1.32 0.66 2 1 C1.814375 2.093125 1.62875 3.18625 1.4375 4.3125 C0.7421932 7.93624133 0.7421932 7.93624133 2 11 C1.72428861 13.00875442 1.39764263 15.01178687 1 17 C-0.32 17.33 -1.64 17.66 -3 18 C-3.37634203 11.19796625 -2.77471079 6.24309927 0 0 Z " fill="#4C7E69" transform="translate(16,31)"/>
<path d="M0 0 C0.99 0.33 1.98 0.66 3 1 C3.33 4.63 3.66 8.26 4 12 C4.99 12 5.98 12 7 12 C7.59732819 14.76264289 8 17.16032769 8 20 C7.34 19.67 6.68 19.34 6 19 C6 17.68 6 16.36 6 15 C5.38125 14.938125 4.7625 14.87625 4.125 14.8125 C2 14 2 14 0.8125 11.5625 C0.544375 10.716875 0.27625 9.87125 0 9 C-0.33 8.34 -0.66 7.68 -1 7 C-0.71758117 4.6599583 -0.38749213 2.32495277 0 0 Z " fill="#4B98BD" transform="translate(30,43)"/>
<path d="M0 0 C2 2 2 2 2 4 C4.475 4.495 4.475 4.495 7 5 C5 7 5 7 2.4609375 7.23046875 C-3.44272175 7.1482659 -9.16183418 6.89817936 -15 6 C-14.67 5.34 -14.34 4.68 -14 4 C-10.9375 3.375 -10.9375 3.375 -8 3 C-8 3.66 -8 4.32 -8 5 C-6.68 5 -5.36 5 -4 5 C-3.67 4.01 -3.34 3.02 -3 2 C-2.01 1.34 -1.02 0.68 0 0 Z " fill="#879A90" transform="translate(59,80)"/>
<path d="M0 0 C0.66 0.66 1.32 1.32 2 2 C4.60280568 1.67958603 4.60280568 1.67958603 7 1 C7.66 3.31 8.32 5.62 9 8 C6.625 8.625 6.625 8.625 4 9 C3.34 8.34 2.68 7.68 2 7 C1.01 6.67 0.02 6.34 -1 6 C-1.042721 4.33388095 -1.04063832 2.66617115 -1 1 C-0.67 0.67 -0.34 0.34 0 0 Z " fill="#57868E" transform="translate(60,73)"/>
<path d="M0 0 C2.07196631 0.73178866 4.1108552 1.55899003 6.125 2.4375 C7.22070312 2.91058594 8.31640625 3.38367187 9.4453125 3.87109375 C10.28835937 4.24363281 11.13140625 4.61617187 12 5 C12 6.98 12 8.96 12 11 C11.29875 10.175 10.5975 9.35 9.875 8.5 C7.2419659 5.65824025 7.2419659 5.65824025 3.875 6 C2.92625 6 1.9775 6 1 6 C-0.875 3.5 -0.875 3.5 -2 1 C-1.34 0.67 -0.68 0.34 0 0 Z " fill="#739981" transform="translate(82,30)"/>
<path d="M0 0 C3.86463725 0.41406828 6.12722 2.52621722 9 5 C9.66 4.67 10.32 4.34 11 4 C11 5.98 11 7.96 11 10 C5.25 8.125 5.25 8.125 3 7 C2.67 6.01 2.34 5.02 2 4 C0.50014391 2.33289654 0.50014391 2.33289654 -1 1 C-0.67 0.67 -0.34 0.34 0 0 Z " fill="#2E82B3" transform="translate(64,21)"/>
<path d="M0 0 C0.66 0.33 1.32 0.66 2 1 C1.34580901 6.06998019 -0.8546409 10.41990777 -3 15 C-3.66 14.67 -4.32 14.34 -5 14 C-4.835 12.906875 -4.67 11.81375 -4.5 10.6875 C-3.93281816 7.12474127 -3.93281816 7.12474127 -4 4 C-3.34 4.33 -2.68 4.66 -2 5 C-1.34 3.35 -0.68 1.7 0 0 Z " fill="#1B4744" transform="translate(21,25)"/>
<path d="M0 0 C0.99 0.33 1.98 0.66 3 1 C3 1.99 3 2.98 3 4 C2.34 4 1.68 4 1 4 C1.144375 4.5775 1.28875 5.155 1.4375 5.75 C1.95833333 7.83333333 2.47916667 9.91666667 3 12 C2.01 12.33 1.02 12.66 0 13 C0 12.34 0 11.68 0 11 C-0.99 10.34 -1.98 9.68 -3 9 C-3.8125 6 -3.8125 6 -4 3 C-3.34 2.34 -2.68 1.68 -2 1 C-1.34 1.33 -0.68 1.66 0 2 C0 1.34 0 0.68 0 0 Z " fill="#2F7984" transform="translate(22,56)"/>
<path d="M0 0 C1.32 0.33 2.64 0.66 4 1 C4.33 2.65 4.66 4.3 5 6 C3.35 6.33 1.7 6.66 0 7 C0.66 7.33 1.32 7.66 2 8 C1.34 8.66 0.68 9.32 0 10 C-0.99 10 -1.98 10 -3 10 C-2.67 8.35 -2.34 6.7 -2 5 C-2.66 4.67 -3.32 4.34 -4 4 C-2.68 3.34 -1.36 2.68 0 2 C0 1.34 0 0.68 0 0 Z " fill="#4B7383" transform="translate(90,47)"/>
<path d="M0 0 C1.32 0.66 2.64 1.32 4 2 C3.01 2.33 2.02 2.66 1 3 C0.938125 4.258125 0.87625 5.51625 0.8125 6.8125 C0.40190978 10.16862878 0.29901613 10.7403281 -2.375 13.0625 C-5 14 -5 14 -8 13 C-7.34 13 -6.68 13 -6 13 C-6 12.34 -6 11.68 -6 11 C-5.01 11 -4.02 11 -3 11 C-3 10.01 -3 9.02 -3 8 C-3.66 8 -4.32 8 -5 8 C-4 5 -4 5 -1 3 C-0.67 2.01 -0.34 1.02 0 0 Z " fill="#50A7C0" transform="translate(72,30)"/>
<path d="M0 0 C0.33 0.66 0.66 1.32 1 2 C-0.423125 2.12375 -0.423125 2.12375 -1.875 2.25 C-3.421875 2.62125 -3.421875 2.62125 -5 3 C-6.1500831 4.96672915 -6.1500831 4.96672915 -7 7 C-9.13002316 7.79875868 -10.73304965 8 -13 8 C-13 6.68 -13 5.36 -13 4 C-4.738041 -0.59225513 -4.738041 -0.59225513 0 0 Z " fill="#446F7E" transform="translate(44,7)"/>
<path d="M0 0 C5.00677362 0.33378491 9.28101628 1.23038111 14 3 C11.42786866 4.61949011 10.32330841 5.04408751 7.25 4.625 C6.5075 4.41875 5.765 4.2125 5 4 C4.01 5.32 3.02 6.64 2 8 C1.67 6.35 1.34 4.7 1 3 C0.01 2.67 -0.98 2.34 -2 2 C-1.34 1.34 -0.68 0.68 0 0 Z " fill="#698D95" transform="translate(59,6)"/>
<path d="M0 0 C0.99 0 1.98 0 3 0 C4.17426264 2.34852528 4.11508173 3.73774065 4.09765625 6.3515625 C4.09443359 7.20234375 4.09121094 8.053125 4.08789062 8.9296875 C4.07951172 9.81914063 4.07113281 10.70859375 4.0625 11.625 C4.05798828 12.5221875 4.05347656 13.419375 4.04882812 14.34375 C4.03702591 16.56256648 4.02056155 18.78125018 4 21 C3.67 21 3.34 21 3 21 C2.95101562 20.38253906 2.90203125 19.76507813 2.8515625 19.12890625 C2.3902718 13.90359613 1.64915365 8.90894923 0.40234375 3.8125 C0 2 0 2 0 0 Z " fill="#3E91BA" transform="translate(52,28)"/>
<path d="M0 0 C6.08167932 2.62617971 9.31916693 5.96812559 12 12 C8.7173068 10.50923566 6.06922559 8.61379679 3.25 6.375 C2.45078125 5.74335938 1.6515625 5.11171875 0.828125 4.4609375 C0.22484375 3.97882812 -0.3784375 3.49671875 -1 3 C-0.67 2.01 -0.34 1.02 0 0 Z " fill="#386885" transform="translate(71,13)"/>
<path d="M0 0 C5.60461531 0.42089996 10.72086547 0.91613111 16 3 C13.00316126 4.99789249 11.5341312 5.74756206 8 6 C5.1875 4.6875 5.1875 4.6875 3 3 C3 2.34 3 1.68 3 1 C2.01 0.67 1.02 0.34 0 0 Z " fill="#3775B9" transform="translate(37,66)"/>
<path d="M0 0 C0.66 0.33 1.32 0.66 2 1 C2 1.66 2 2.32 2 3 C2.66 3.66 3.32 4.32 4 5 C3.01 6.485 3.01 6.485 2 8 C-0.625 8.1875 -0.625 8.1875 -3 8 C-3 7.34 -3 6.68 -3 6 C-3.66 5.67 -4.32 5.34 -5 5 C-3.35 3.35 -1.7 1.7 0 0 Z " fill="#224A50" transform="translate(28,13)"/>
<path d="M0 0 C0.33 0.99 0.66 1.98 1 3 C0.484375 3.37125 -0.03125 3.7425 -0.5625 4.125 C-2.36319983 6.03173152 -2.36319983 6.03173152 -1.6875 9.1875 C-1.460625 10.115625 -1.23375 11.04375 -1 12 C-2.32 12.33 -3.64 12.66 -5 13 C-5 11.68 -5 10.36 -5 9 C-4.34 9 -3.68 9 -3 9 C-3 8.34 -3 7.68 -3 7 C-4.32 7.33 -5.64 7.66 -7 8 C-7.33 6.68 -7.66 5.36 -8 4 C-5.09399739 2.74335022 -3.20395416 2 0 2 C0 1.34 0 0.68 0 0 Z " fill="#6AB5DA" transform="translate(44,50)"/>
<path d="M0 0 C1.65 0.99 3.3 1.98 5 3 C4.11223998 6.69900008 3.05418136 10.34550461 2 14 C1.34 14 0.68 14 0 14 C0.59950296 10.31733897 1.24758891 6.65456815 2 3 C1.319375 3.99 1.319375 3.99 0.625 5 C0.08875 5.66 -0.4475 6.32 -1 7 C-1.66 7 -2.32 7 -3 7 C-2.25 2.25 -2.25 2.25 0 0 Z " fill="#2F5F62" transform="translate(20,23)"/>
<path d="M0 0 C3.3 0.66 6.6 1.32 10 2 C9.67 3.65 9.34 5.3 9 7 C7 6 7 6 6 5 C3.67182036 4.63239269 1.3381615 4.29758419 -1 4 C-0.67 2.68 -0.34 1.36 0 0 Z " fill="#3991BA" transform="translate(54,18)"/>
<path d="M0 0 C1.9375 0.1875 1.9375 0.1875 4 1 C5.125 3 5.125 3 6 5 C6.66 5.33 7.32 5.66 8 6 C7.67 7.65 7.34 9.3 7 11 C5.35 10.67 3.7 10.34 2 10 C2.33 9.34 2.66 8.68 3 8 C3.33 8 3.66 8 4 8 C2.70700306 5.11562221 1.34058637 3.12780579 -1 1 C-0.67 0.67 -0.34 0.34 0 0 Z " fill="#6EB8D5" transform="translate(63,24)"/>
<path d="M0 0 C0.99 0 1.98 0 3 0 C3 0.99 3 1.98 3 3 C1.02 3.99 1.02 3.99 -1 5 C-1 5.66 -1 6.32 -1 7 C-2.32 6.67 -3.64 6.34 -5 6 C-5.33 6.99 -5.66 7.98 -6 9 C-6.66 9 -7.32 9 -8 9 C-7.34 7.02 -6.68 5.04 -6 3 C-4.02 2.67 -2.04 2.34 0 2 C0 1.34 0 0.68 0 0 Z " fill="#7CBCD2" transform="translate(66,38)"/>
<path d="M0 0 C0 2.31 0 4.62 0 7 C-1.65 7.33 -3.3 7.66 -5 8 C-5.93423645 4.98968256 -6.04449911 4.13349732 -5 1 C-3.28960011 0.41205004 -1.81522119 0 0 0 Z " fill="#48899E" transform="translate(52,32)"/>
<path d="M0 0 C1.32 0.99 2.64 1.98 4 3 C3.01 3.495 3.01 3.495 2 4 C2 7.3 2 10.6 2 14 C0 13 0 13 -2 10 C-2.99 9.34 -3.98 8.68 -5 8 C-4.01 8 -3.02 8 -2 8 C-1.855625 6.865625 -1.71125 5.73125 -1.5625 4.5625 C-1 1 -1 1 0 0 Z " fill="#468077" transform="translate(24,29)"/>
<path d="M0 0 C0.763125 0.309375 1.52625 0.61875 2.3125 0.9375 C4.18789677 1.67893593 6.08684652 2.36228217 8 3 C8 3.66 8 4.32 8 5 C4.696686 5.88935377 1.37705625 6.46274105 -2 7 C-1.125 2.25 -1.125 2.25 0 0 Z " fill="#50798B" transform="translate(63,10)"/>
<path d="M0 0 C-0.33 1.32 -0.66 2.64 -1 4 C-1.99 4 -2.98 4 -4 4 C-4.33 4.66 -4.66 5.32 -5 6 C-6.9375 6.75 -6.9375 6.75 -9 7 C-9.66 6.34 -10.32 5.68 -11 5 C-9.73461631 4.15841464 -8.46246221 3.32700252 -7.1875 2.5 C-6.47980469 2.0359375 -5.77210937 1.571875 -5.04296875 1.09375 C-3 0 -3 0 0 0 Z " fill="#4E98B2" transform="translate(75,40)"/>
<path d="M0 0 C2.62187494 1.04874998 3.79371361 1.64931313 5.25 4.125 C5.4975 4.74375 5.745 5.3625 6 6 C5.01 6 4.02 6 3 6 C2.01 7.485 2.01 7.485 1 9 C0.01 8.67 -0.98 8.34 -2 8 C-1.34 6.35 -0.68 4.7 0 3 C-0.66 2.67 -1.32 2.34 -2 2 C-1.34 1.34 -0.68 0.68 0 0 Z " fill="#559DBA" transform="translate(63,27)"/>
<path d="M0 0 C-1.3042328 3.9126984 -2.78934739 6.37310241 -6 9 C-6.99 9 -7.98 9 -9 9 C-8.67 7.68 -8.34 6.36 -8 5 C-7.34 5 -6.68 5 -6 5 C-6 4.34 -6 3.68 -6 3 C-2.53846154 0 -2.53846154 0 0 0 Z " fill="#1F4655" transform="translate(86,67)"/>
<path d="M0 0 C0 0.66 0 1.32 0 2 C-1.32 2 -2.64 2 -4 2 C-4 2.66 -4 3.32 -4 4 C-5.32 4.33 -6.64 4.66 -8 5 C-8.625 3.125 -8.625 3.125 -9 1 C-5.66794923 -2.33205077 -3.95714908 -2.63809939 0 0 Z " fill="#417F83" transform="translate(26,54)"/>
<path d="M0 0 C1.32 0 2.64 0 4 0 C4.20086443 3.71599191 4.1519437 4.77208445 2 8 C1.34 8 0.68 8 0 8 C0 9.32 0 10.64 0 12 C-0.99 12 -1.98 12 -3 12 C-2.6875 9.625 -2.6875 9.625 -2 7 C-1.01 6.34 -0.02 5.68 1 5 C1.72382467 2.94074861 1.72382467 2.94074861 2 1 C1.34 0.67 0.68 0.34 0 0 Z " fill="#56716B" transform="translate(73,69)"/>
<path d="M0 0 C4.64157706 0.62724014 4.64157706 0.62724014 6.5625 2.625 C7.036875 3.07875 7.51125 3.5325 8 4 C10.16299211 3.77242269 10.16299211 3.77242269 12 3 C11.34 4.32 10.68 5.64 10 7 C2.18363463 5.08277831 2.18363463 5.08277831 0 2 C0 1.34 0 0.68 0 0 Z " fill="#587785" transform="translate(34,79)"/>
<path d="M0 0 C3.625 -0.1875 3.625 -0.1875 7 0 C7.33 0.99 7.66 1.98 8 3 C7.360625 3.12375 6.72125 3.2475 6.0625 3.375 C5.381875 3.58125 4.70125 3.7875 4 4 C3.67 4.66 3.34 5.32 3 6 C2.34 6 1.68 6 1 6 C1 5.34 1 4.68 1 4 C0.01 3.67 -0.98 3.34 -2 3 C-1.34 2.01 -0.68 1.02 0 0 Z " fill="#447887" transform="translate(42,75)"/>
<path d="M0 0 C1.32 0 2.64 0 4 0 C4 1.32 4 2.64 4 4 C4.99 4 5.98 4 7 4 C7 5.32 7 6.64 7 8 C5.68 8 4.36 8 3 8 C2.01 5.36 1.02 2.72 0 0 Z " fill="#6DB5D7" transform="translate(65,52)"/>
<path d="M0 0 C0.33 0.99 0.66 1.98 1 3 C1.350625 3.66 1.70125 4.32 2.0625 5 C3 7 3 7 3 10 C2.01 10 1.02 10 0 10 C-2.07639763 7.12498789 -3.3543999 4.48624056 -4 1 C-2.68 0.67 -1.36 0.34 0 0 Z " fill="#72AFD9" transform="translate(61,52)"/>
<path d="M0 0 C1.32 0 2.64 0 4 0 C4.33 0.66 4.66 1.32 5 2 C5.99 2.33 6.98 2.66 8 3 C7.01 4.32 6.02 5.64 5 7 C2.5625 6.1875 2.5625 6.1875 0 5 C-0.33 4.01 -0.66 3.02 -1 2 C-0.67 1.34 -0.34 0.68 0 0 Z " fill="#4797B8" transform="translate(37,42)"/>
<path d="M0 0 C3.465 1.485 3.465 1.485 7 3 C6.34 4.98 5.68 6.96 5 9 C4.01 8.34 3.02 7.68 2 7 C2 5.68 2 4.36 2 3 C1.01 3.33 0.02 3.66 -1 4 C-0.67 2.68 -0.34 1.36 0 0 Z " fill="#559EBB" transform="translate(59,50)"/>
<path d="M0 0 C0.66 0 1.32 0 2 0 C2 0.66 2 1.32 2 2 C2.66 2 3.32 2 4 2 C4 2.99 4 3.98 4 5 C3.01 5.33 2.02 5.66 1 6 C0.67 6.66 0.34 7.32 0 8 C-1.32 7.34 -2.64 6.68 -4 6 C-2 3 -2 3 -1 2 C-0.67 1.34 -0.34 0.68 0 0 Z " fill="#58A4BD" transform="translate(41,25)"/>
<path d="M0 0 C0 0.99 0 1.98 0 3 C-2.64 3 -5.28 3 -8 3 C-8.33 3.99 -8.66 4.98 -9 6 C-9.99 6 -10.98 6 -12 6 C-12 5.34 -12 4.68 -12 4 C-11.01 4 -10.02 4 -9 4 C-8.67 3.01 -8.34 2.02 -8 1 C-5.29120665 -0.35439668 -2.99066732 -0.06501451 0 0 Z " fill="#2269A0" transform="translate(47,20)"/>
<path d="M0 0 C1.98 0.495 1.98 0.495 4 1 C4 2.65 4 4.3 4 6 C3.34 6 2.68 6 2 6 C2 5.01 2 4.02 2 3 C1.01 2.67 0.02 2.34 -1 2 C-0.67 1.34 -0.34 0.68 0 0 Z M1 6 C1.33 7.32 1.66 8.64 2 10 C1.01 10.33 0.02 10.66 -1 11 C-1 9.68 -1 8.36 -1 7 C-0.34 6.67 0.32 6.34 1 6 Z " fill="#59A6CB" transform="translate(73,37)"/>
<path d="M0 0 C2.9375 1.25 2.9375 1.25 6 3 C6.875 5.1875 6.875 5.1875 7 7 C5.35 7.33 3.7 7.66 2 8 C2.33 6.68 2.66 5.36 3 4 C2.01 3.67 1.02 3.34 0 3 C0 2.01 0 1.02 0 0 Z " fill="#387489" transform="translate(76,23)"/>
<path d="M0 0 C0.99 0.495 0.99 0.495 2 1 C2 1.66 2 2.32 2 3 C3.65 2.67 5.3 2.34 7 2 C7.33 3.32 7.66 4.64 8 6 C5.36 6 2.72 6 0 6 C0 4.02 0 2.04 0 0 Z " fill="#567B84" transform="translate(62,79)"/>
<path d="M0 0 C4.92307692 4.30769231 4.92307692 4.30769231 5.3125 7.8125 C5.209375 8.534375 5.10625 9.25625 5 10 C3.35 10 1.7 10 0 10 C0 9.34 0 8.68 0 8 C0.66 7.67 1.32 7.34 2 7 C2 5.68 2 4.36 2 3 C1.01 2.67 0.02 2.34 -1 2 C-0.67 1.34 -0.34 0.68 0 0 Z " fill="#8EA66A" transform="translate(19,38)"/>
<path d="M0 0 C2 2 2 2 2.1953125 3.9453125 C2.13020833 5.96354167 2.06510417 7.98177083 2 10 C1.67 10 1.34 10 1 10 C1 8.35 1 6.7 1 5 C-0.98 5.33 -2.96 5.66 -5 6 C-5.33 5.34 -5.66 4.68 -6 4 C-4.35 3.67 -2.7 3.34 -1 3 C-0.67 2.01 -0.34 1.02 0 0 Z " fill="#425A59" transform="translate(76,64)"/>
<path d="M0 0 C0.66 0 1.32 0 2 0 C3.32 2.31 4.64 4.62 6 7 C4.68 7.33 3.36 7.66 2 8 C0.79371992 5.66785852 -0.1654738 3.50357861 -1 1 C-0.67 0.67 -0.34 0.34 0 0 Z " fill="#30769B" transform="translate(25,56)"/>
<path d="M0 0 C0.66 0 1.32 0 2 0 C2 0.99 2 1.98 2 3 C2.99 3.66 3.98 4.32 5 5 C4.67 5.66 4.34 6.32 4 7 C3.34 6.67 2.68 6.34 2 6 C1.67 6.66 1.34 7.32 1 8 C0.01 7.67 -0.98 7.34 -2 7 C-1.125 2.25 -1.125 2.25 0 0 Z " fill="#599BB9" transform="translate(47,47)"/>
<path d="M0 0 C0.99 0 1.98 0 3 0 C3.33 1.32 3.66 2.64 4 4 C4.66 4 5.32 4 6 4 C5.67 5.32 5.34 6.64 5 8 C2 7 2 7 0 4 C0 2.68 0 1.36 0 0 Z " fill="#67B6D5" transform="translate(33,44)"/>
<path d="M0 0 C1.65 0.33 3.3 0.66 5 1 C4.67 2.65 4.34 4.3 4 6 C3.01 6.33 2.02 6.66 1 7 C0.34 6.34 -0.32 5.68 -1 5 C-0.625 2.375 -0.625 2.375 0 0 Z M1 2 C1.33 2.99 1.66 3.98 2 5 C2 4.01 2 3.02 2 2 C1.67 2 1.34 2 1 2 Z " fill="#7E937C" transform="translate(70,69)"/>
<path d="M0 0 C0.99 0 1.98 0 3 0 C3 0.66 3 1.32 3 2 C4.32 2.66 5.64 3.32 7 4 C6.01 5.485 6.01 5.485 5 7 C3.68 7 2.36 7 1 7 C0.67 4.69 0.34 2.38 0 0 Z " fill="#8DA589" transform="translate(83,41)"/>
<path d="M0 0 C0.66 0.66 1.32 1.32 2 2 C4.57061311 2.64767793 4.57061311 2.64767793 7 3 C6.67 3.66 6.34 4.32 6 5 C4.35 4.67 2.7 4.34 1 4 C1 6.97 1 9.94 1 13 C0.67 13 0.34 13 0 13 C0 8.71 0 4.42 0 0 Z " fill="#6AABC5" transform="translate(57,36)"/>
<path d="M0 0 C1.65 0 3.3 0 5 0 C5.66 1.65 6.32 3.3 7 5 C6.01 5.33 5.02 5.66 4 6 C4 5.34 4 4.68 4 4 C3.01 4 2.02 4 1 4 C0.67 2.68 0.34 1.36 0 0 Z " fill="#2B5F8C" transform="translate(23,68)"/>
<path d="M0 0 C0.66 0 1.32 0 2 0 C1.8125 2.8125 1.8125 2.8125 1 6 C-1.5625 7.875 -1.5625 7.875 -4 9 C-4.66 8.34 -5.32 7.68 -6 7 C-5.071875 6.6596875 -5.071875 6.6596875 -4.125 6.3125 C-1.38589791 4.62070165 -0.94975528 3.00755839 0 0 Z " fill="#37739F" transform="translate(75,56)"/>
<path d="M0 0 C0.66 1.32 1.32 2.64 2 4 C1.01 4.33 0.02 4.66 -1 5 C-1 5.66 -1 6.32 -1 7 C-3.5 8.625 -3.5 8.625 -6 10 C-5.42618522 6.67187429 -4.40619252 5.30157545 -2 3 C-2 2.34 -2 1.68 -2 1 C-1.34 0.67 -0.68 0.34 0 0 Z " fill="#589290" transform="translate(91,42)"/>
<path d="M0 0 C0.125 2.375 0.125 2.375 0 5 C-0.66 5.66 -1.32 6.32 -2 7 C-4.125 6.625 -4.125 6.625 -6 6 C-5.34 5.34 -4.68 4.68 -4 4 C-4 3.01 -4 2.02 -4 1 C-2 0 -2 0 0 0 Z " fill="#518167" transform="translate(30,21)"/>
<path d="M0 0 C0.33 0 0.66 0 1 0 C1.1875 2.375 1.1875 2.375 1 5 C-2 7 -2 7 -4.1875 6.625 C-4.785625 6.41875 -5.38375 6.2125 -6 6 C-5.67 5.34 -5.34 4.68 -5 4 C-4.34 4 -3.68 4 -3 4 C-2.67 3.34 -2.34 2.68 -2 2 C-1.34 1.34 -0.68 0.68 0 0 Z " fill="#2C64CB" transform="translate(55,62)"/>
<path d="M0 0 C2 1.8125 2 1.8125 4 4 C4 4.99 4 5.98 4 7 C3.01 7.33 2.02 7.66 1 8 C1 7.34 1 6.68 1 6 C0.01 5.34 -0.98 4.68 -2 4 C-1.34 2.68 -0.68 1.36 0 0 Z " fill="#2E6D7D" transform="translate(21,61)"/>
<path d="M0 0 C0.33 0.99 0.66 1.98 1 3 C2.31647119 3.69937532 3.65022151 4.36729133 5 5 C5.33 5.66 5.66 6.32 6 7 C4.68 7 3.36 7 2 7 C2 6.01 2 5.02 2 4 C0.68 4.33 -0.64 4.66 -2 5 C-2 3.68 -2 2.36 -2 1 C-1.34 0.67 -0.68 0.34 0 0 Z " fill="#74AED7" transform="translate(69,45)"/>
<path d="M0 0 C0.99 0.66 1.98 1.32 3 2 C1.02 4.97 1.02 4.97 -1 8 C-2 6 -3 4 -4 2 C-2.68 1.34 -1.36 0.68 0 0 Z " fill="#1F87B0" transform="translate(32,33)"/>
<path d="M0 0 C1.32 0 2.64 0 4 0 C4 1.65 4 3.3 4 5 C3.38125 4.814375 2.7625 4.62875 2.125 4.4375 C-0.04160178 3.76313824 -0.04160178 3.76313824 -2 5 C-1.34 3.35 -0.68 1.7 0 0 Z " fill="#829279" transform="translate(46,78)"/>
<path d="M0 0 C0.66 0.66 1.32 1.32 2 2 C2.99 1.67 3.98 1.34 5 1 C5.33 2.32 5.66 3.64 6 5 C3 5 3 5 1 4 C1 4.66 1 5.32 1 6 C0.34 6 -0.32 6 -1 6 C-1.042721 4.33388095 -1.04063832 2.66617115 -1 1 C-0.67 0.67 -0.34 0.34 0 0 Z " fill="#539699" transform="translate(60,73)"/>
<path d="M0 0 C0.66 0.33 1.32 0.66 2 1 C2 4 2 7 2 10 C-0.0625 7.75 -0.0625 7.75 -2 5 C-1.81190541 2.74286486 -1.60454441 1.60454441 0 0 Z " fill="#4C7A7A" transform="translate(68,67)"/>
<path d="M0 0 C1.4540625 0.0309375 1.4540625 0.0309375 2.9375 0.0625 C2.9375 1.0525 2.9375 2.0425 2.9375 3.0625 C0.9575 3.7225 -1.0225 4.3825 -3.0625 5.0625 C-3.625 3.125 -3.625 3.125 -4.0625 1.0625 C-3.0625 0.0625 -3.0625 0.0625 0 0 Z " fill="#5DA9CD" transform="translate(37.0625,50.9375)"/>
<path d="M0 0 C0.99 0 1.98 0 3 0 C1.80100302 3.0831351 0.52299523 6.06279492 -1 9 C-1.66 8.67 -2.32 8.34 -3 8 C-3 6.68 -3 5.36 -3 4 C-2.34 3.67 -1.68 3.34 -1 3 C-0.67 2.01 -0.34 1.02 0 0 Z " fill="#488CA8" transform="translate(42,30)"/>
<path d="M0 0 C0.66 0 1.32 0 2 0 C2 1.32 2 2.64 2 4 C3.32 4.66 4.64 5.32 6 6 C5.67 6.66 5.34 7.32 5 8 C2.4375 8.625 2.4375 8.625 0 9 C0 6.03 0 3.06 0 0 Z " fill="#82C1D6" transform="translate(58,30)"/>
<path d="M0 0 C0.99 0.33 1.98 0.66 3 1 C4.1875 4.5625 4.1875 4.5625 5 8 C2.5625 7.625 2.5625 7.625 0 7 C-0.33 6.34 -0.66 5.68 -1 5 C-0.34 5 0.32 5 1 5 C0.67 3.35 0.34 1.7 0 0 Z " fill="#42616C" transform="translate(89,27)"/>
<path d="M0 0 C0.66 0 1.32 0 2 0 C2.66 1.65 3.32 3.3 4 5 C2.02 5.99 2.02 5.99 0 7 C-0.38133299 5.0085944 -0.71325582 3.00720923 -1 1 C-0.67 0.67 -0.34 0.34 0 0 Z " fill="#3F7990" transform="translate(30,63)"/>
<path d="M0 0 C2.475 0.495 2.475 0.495 5 1 C5 2.98 5 4.96 5 7 C3.29115995 5.37660195 1.62553283 3.70680947 0 2 C0 1.34 0 0.68 0 0 Z " fill="#66868A" transform="translate(89,34)"/>
<path d="M0 0 C0.66 0.33 1.32 0.66 2 1 C1.814375 2.11375 1.62875 3.2275 1.4375 4.375 C0.68319343 7.82568861 0.68319343 7.82568861 2 10 C0.68 9.34 -0.64 8.68 -2 8 C-1.125 1.125 -1.125 1.125 0 0 Z " fill="#365E5C" transform="translate(16,31)"/>
<path d="M0 0 C0.66 0 1.32 0 2 0 C2.33 0.99 2.66 1.98 3 3 C2.01 3.495 2.01 3.495 1 4 C0.34786708 6.02463255 0.34786708 6.02463255 0 8 C-0.99 8 -1.98 8 -3 8 C-1.125 2.25 -1.125 2.25 0 0 Z " fill="#2F588D" transform="translate(38,9)"/>
<path d="M0 0 C1.38232443 1.62626404 2.71937515 3.2925002 4 5 C1.36 4.67 -1.28 4.34 -4 4 C-4.33 3.01 -4.66 2.02 -5 1 C-2 0 -2 0 0 0 Z " fill="#46787F" transform="translate(43,11)"/>
<path d="M0 0 C0.33 0.99 0.66 1.98 1 3 C3.97 3.495 3.97 3.495 7 4 C6.67 4.66 6.34 5.32 6 6 C2.62537285 5.45276317 0.91765 4.9451 -2 3 C-2 2.34 -2 1.68 -2 1 C-1.34 0.67 -0.68 0.34 0 0 Z " fill="#6C9086" transform="translate(45,10)"/>
<path d="M0 0 C1.9375 0.3125 1.9375 0.3125 4 1 C4.33 1.99 4.66 2.98 5 4 C1.535 5.485 1.535 5.485 -2 7 C-1.34 4.69 -0.68 2.38 0 0 Z " fill="#3A5880" transform="translate(73,77)"/>
<path d="M0 0 C0.99 0 1.98 0 3 0 C2.67 1.32 2.34 2.64 2 4 C1.34 3.67 0.68 3.34 0 3 C0 3.66 0 4.32 0 5 C-0.99 5 -1.98 5 -3 5 C-3.33 4.01 -3.66 3.02 -4 2 C-2.68 2 -1.36 2 0 2 C0 1.34 0 0.68 0 0 Z " fill="#81C4DA" transform="translate(48,42)"/>
<path d="M0 0 C1.32 0.66 2.64 1.32 4 2 C3.67 3.32 3.34 4.64 3 6 C1.35 6 -0.3 6 -2 6 C-1.34 4.02 -0.68 2.04 0 0 Z " fill="#2178A2" transform="translate(32,28)"/>
<path d="M0 0 C1.32 0.33 2.64 0.66 4 1 C3.34 1 2.68 1 2 1 C2.66 1.99 3.32 2.98 4 4 C3.67 4.99 3.34 5.98 3 7 C2.01 6.67 1.02 6.34 0 6 C0 4.02 0 2.04 0 0 Z " fill="#23484B" transform="translate(87,26)"/>
<path d="M0 0 C0.66 0.33 1.32 0.66 2 1 C1.34 2.65 0.68 4.3 0 6 C-1.32 5.34 -2.64 4.68 -4 4 C-4 3.34 -4 2.68 -4 2 C-2.125 0.9375 -2.125 0.9375 0 0 Z " fill="#34798F" transform="translate(29,26)"/>
<path d="M0 0 C-0.33 0.66 -0.66 1.32 -1 2 C-4.0625 2.625 -4.0625 2.625 -7 3 C-7 2.01 -7 1.02 -7 0 C-3.86650268 -1.04449911 -3.01031744 -0.93423645 0 0 Z " fill="#254A57" transform="translate(76,65)"/>
<path d="M0 0 C0.268125 0.61875 0.53625 1.2375 0.8125 1.875 C1.95556848 4.2995233 1.95556848 4.2995233 5 6 C3.02 6.33 1.04 6.66 -1 7 C-1 5.68 -1 4.36 -1 3 C-1.66 2.67 -2.32 2.34 -3 2 C-2.01 2 -1.02 2 0 2 C0 1.34 0 0.68 0 0 Z " fill="#3F7BBF" transform="translate(35,58)"/>
<path d="M0 0 C1.98 0 3.96 0 6 0 C6.33 0.99 6.66 1.98 7 3 C5.02 3 3.04 3 1 3 C0.67 2.01 0.34 1.02 0 0 Z " fill="#5F967C" transform="translate(19,48)"/>
<path d="M0 0 C0.66 0.66 1.32 1.32 2 2 C1.625 4.625 1.625 4.625 1 7 C0.34 7 -0.32 7 -1 7 C-1.33 5.02 -1.66 3.04 -2 1 C-1.34 0.67 -0.68 0.34 0 0 Z " fill="#4D9BD1" transform="translate(53,53)"/>
<path d="M0 0 C2.475 0.495 2.475 0.495 5 1 C4.67 2.32 4.34 3.64 4 5 C2.68 4.67 1.36 4.34 0 4 C0 2.68 0 1.36 0 0 Z " fill="#3E6787" transform="translate(90,52)"/>
<path d="M0 0 C2.31 0 4.62 0 7 0 C6.67 0.99 6.34 1.98 6 3 C3.9375 3.6875 3.9375 3.6875 2 4 C2 3.34 2 2.68 2 2 C1.34 2 0.68 2 0 2 C0 1.34 0 0.68 0 0 Z " fill="#5C99C6" transform="translate(69,52)"/>
<path d="M0 0 C0.66 0 1.32 0 2 0 C2.6875 2.3125 2.6875 2.3125 3 5 C1.5625 6.8125 1.5625 6.8125 0 8 C0 5.36 0 2.72 0 0 Z " fill="#52847E" transform="translate(14,48)"/>
<path d="M0 0 C1.32 0.33 2.64 0.66 4 1 C3.01 1.495 3.01 1.495 2 2 C2.33 2.66 2.66 3.32 3 4 C2.34 4 1.68 4 1 4 C0.67 4.66 0.34 5.32 0 6 C-0.66 5.34 -1.32 4.68 -2 4 C-1.34 2.68 -0.68 1.36 0 0 Z " fill="#4E839C" transform="translate(68,61)"/>
<path d="M0 0 C2 3.75 2 3.75 2 6 C2.99 6.33 3.98 6.66 5 7 C5 7.66 5 8.32 5 9 C4.01 9 3.02 9 2 9 C-0.29013653 5.5647952 -0.17842973 4.014669 0 0 Z " fill="#2978B6" transform="translate(30,51)"/>
<path d="M0 0 C1.32 0.33 2.64 0.66 4 1 C4.33 2.65 4.66 4.3 5 6 C3.2925002 4.71937515 1.62626404 3.38232443 0 2 C0 1.34 0 0.68 0 0 Z " fill="#5C7E87" transform="translate(90,47)"/>
<path d="M0 0 C2.31 0.33 4.62 0.66 7 1 C7.33 2.98 7.66 4.96 8 7 C7.236875 6.21625 6.47375 5.4325 5.6875 4.625 C3.09108195 1.92742283 3.09108195 1.92742283 0 0 Z " fill="#488B9B" transform="translate(65,18)"/>
<path d="M0 0 C2.62113708 0 4.50935112 0.31292445 7 1 C7 1.66 7 2.32 7 3 C4.69 3 2.38 3 0 3 C0 2.01 0 1.02 0 0 Z " fill="#A9B375" transform="translate(46,10)"/>
</svg>
